<?xml version="1.0" standalone="no"?><?xml-stylesheet type="text/css" href="https://www.processon.com/themes/default/mind/icons/icons.css" ?><!DOCTYPE svg PUBLIC "-//W3C//DTD SVG 1.1//EN" "http://www.w3.org/Graphics/SVG/1.1/DTD/svg11.dtd"><svg id="SvgjsSvg1097" xmlns="http://www.w3.org/2000/svg" version="1.1" xmlns:xlink="http://www.w3.org/1999/xlink" xmlns:svgjs="http://svgjs.com/svgjs" width="884.0124816894531" height="286"><rect fill="url(#pattern_mark)" transform="translate(-22.587509155273438,-70.60000610351562)" width="1050" height="1500" id="rect_mark" pointer-events="none"></rect><defs id="SvgjsDefs1098"><pattern patternUnits="userSpaceOnUse" id="pattern_mark" width="300" height="300"><text x="-50" y="150" fill="rgba(229,229,229,0.8)" font-size="18" transform="rotate(-45, 150, 150)"></text></pattern></defs><g id="SvgjsG1099" transform="translate(25.012481689453125,24.99999237060547)"><path id="SvgjsPath1100" d="M0 4Q0 0 4 0L339.20001220703125 0Q343.20001220703125 0 343.20001220703125 4L343.20001220703125 232.5Q343.20001220703125 236.5 339.20001220703125 236.5L4 236.5Q0 236.5 0 232.5Z " stroke-dasharray="10,6" stroke="rgba(76,175,80,1)" stroke-width="2" fill-opacity="1" fill="#ffffff"></path><g id="SvgjsG1101"><text id="SvgjsText1102" font-family="微软雅黑" text-anchor="middle" font-size="13px" width="324px" fill="#323232" font-weight="400" align="middle" lineHeight="125%" font-style="" opacity="1" y="107.625" transform="rotate(0)"></text></g></g><g id="SvgjsG1103" transform="translate(44.612457275390625,118.39999389648438)"><path id="SvgjsPath1104" d="M0 0L79.60003662109375 0L79.60003662109375 119.5999984741211L0 119.5999984741211Z " stroke="rgba(50,50,50,1)" stroke-width="2" fill-opacity="1" fill="#e0e0e0"></path><g id="SvgjsG1105"><text id="SvgjsText1106" font-family="微软雅黑" text-anchor="middle" font-size="16px" width="60px" fill="#323232" font-weight="400" align="middle" lineHeight="125%" font-style="" opacity="1" y="45.79999923706055" transform="rotate(0)"><tspan id="SvgjsTspan1107" dy="20" x="40"><tspan id="SvgjsTspan1108" style="text-decoration:;">Router</tspan></tspan></text></g></g><g id="SvgjsG1109" transform="translate(134.01248168945312,117.99999618530273)"><path id="SvgjsPath1110" d="M0 0L120.20001220703125 0L120.20001220703125 120L0 120Z " stroke="rgba(50,50,50,1)" stroke-width="2" fill-opacity="1" fill="#e0e0e0"></path><g id="SvgjsG1111"><text id="SvgjsText1112" font-family="微软雅黑" text-anchor="middle" font-size="16px" width="101px" fill="#323232" font-weight="400" align="middle" lineHeight="125%" font-style="" opacity="1" y="46" transform="rotate(0)"><tspan id="SvgjsTspan1113" dy="20" x="60.5"><tspan id="SvgjsTspan1114" style="text-decoration:;">Components</tspan></tspan></text></g></g><g id="SvgjsG1115" transform="translate(134.11248779296875,37.99999237060547)"><path id="SvgjsPath1116" d="M0 0L120 0L120 40L0 40Z " stroke="none" fill="none"></path><g id="SvgjsG1117"><text id="SvgjsText1118" font-family="微软雅黑" text-anchor="middle" font-size="24px" width="120px" fill="#4caf50" font-weight="400" align="middle" lineHeight="125%" font-style="" opacity="1" y="-1" transform="rotate(0)"><tspan id="SvgjsTspan1119" dy="30" x="60"><tspan id="SvgjsTspan1120" style="text-decoration:;">Vue.js</tspan></tspan></text></g></g><g id="SvgjsG1121" transform="translate(276.7124938964844,77.99999237060547)"><path id="SvgjsPath1122" d="M0 0L86 0L86 34.400001525878906L0 34.400001525878906Z " stroke="none" fill="none"></path><g id="SvgjsG1123"><text id="SvgjsText1124" font-family="微软雅黑" text-anchor="middle" font-size="18px" width="86px" fill="#9c27b0" font-weight="400" align="middle" lineHeight="125%" font-style="" opacity="1" y="1.9500007629394531" transform="rotate(0)"><tspan id="SvgjsTspan1125" dy="22" x="43"><tspan id="SvgjsTspan1126" style="text-decoration:;">Axios</tspan></tspan></text></g></g><g id="SvgjsG1127" transform="translate(385.2124938964844,24.99999237060547)"><path id="SvgjsPath1128" d="M0 4Q0 0 4 0L293 0Q297 0 297 4L297 232.5Q297 236.5 293 236.5L4 236.5Q0 236.5 0 232.5Z " stroke-dasharray="10,6" stroke="rgba(76,175,80,1)" stroke-width="2" fill-opacity="1" fill="#ffffff"></path><g id="SvgjsG1129"><text id="SvgjsText1130" font-family="微软雅黑" text-anchor="middle" font-size="13px" width="277px" fill="#323232" font-weight="400" align="middle" lineHeight="125%" font-style="" opacity="1" y="107.625" transform="rotate(0)"></text></g></g><g id="SvgjsG1131" transform="matrix(-1.8369701987210297e-16,-1,1,-1.8369701987210297e-16,736.0124931335449,246.9999961853028)"><path id="SvgjsPath1132" d="M19.139999771118163 0L107.06666310628255 0C133.19999902898616 0 133.19999902898616 123.2000122070313 107.06666310628255 123.2000122070313L19.139999771118163 123.2000122070313C-6.379999923706055 123.2000122070313 -6.379999923706055 0 19.139999771118163 0ZM107.06666310628255 0C81.39999389648435 0 81.39999389648435 123.2000122070313 107.06666310628255 123.2000122070313C81.39999389648435 123.2000122070313 81.39999389648435 0 107.06666310628255 0 " stroke="rgba(25,118,210,1)" stroke-width="2" fill-opacity="1" fill="#ffffff"></path><g id="SvgjsG1133"><text id="SvgjsText1134" font-family="微软雅黑" text-anchor="middle" font-size="13px" width="103px" fill="#323232" font-weight="400" align="middle" lineHeight="125%" font-style="" opacity="1" y="50.97500610351565" transform="rotate(0)"></text></g></g><g id="SvgjsG1135" transform="translate(750.9687557220459,172.79998588562012)"><path id="SvgjsPath1136" d="M0 0L93.69998168945312 0L93.69998168945312 39L0 39Z " stroke="none" fill="none"></path><g id="SvgjsG1137"><text id="SvgjsText1138" font-family="微软雅黑" text-anchor="middle" font-size="18px" width="94px" fill="#1976d2" font-weight="400" align="middle" lineHeight="125%" font-style="" opacity="1" y="4.25" transform="rotate(0)"><tspan id="SvgjsTspan1139" dy="22" x="47"><tspan id="SvgjsTspan1140" style="text-decoration:;">MySQL</tspan></tspan></text></g></g><g id="SvgjsG1141" transform="translate(453.0124816894531,37.99999237060547)"><path id="SvgjsPath1142" d="M0 0L163.20001220703125 0L163.20001220703125 40L0 40Z " stroke="none" fill="none"></path><g id="SvgjsG1143"><text id="SvgjsText1144" font-family="微软雅黑" text-anchor="middle" font-size="24px" width="164px" fill="#4caf50" font-weight="400" align="middle" lineHeight="125%" font-style="" opacity="1" y="-1" transform="rotate(0)"><tspan id="SvgjsTspan1145" dy="30" x="82"><tspan id="SvgjsTspan1146" style="text-decoration:;">Spring Boot</tspan></tspan></text></g></g><g id="SvgjsG1147" transform="translate(424.02497482299805,117.99999618530273)"><path id="SvgjsPath1148" d="M0 0L92.4000244140625 0L92.4000244140625 120L0 120Z " stroke="rgba(50,50,50,1)" stroke-width="2" fill-opacity="1" fill="#e0e0e0"></path><g id="SvgjsG1149"><text id="SvgjsText1150" font-family="微软雅黑" text-anchor="middle" font-size="16px" width="73px" fill="#323232" font-weight="400" align="middle" lineHeight="125%" font-style="" opacity="1" y="36" transform="rotate(0)"><tspan id="SvgjsTspan1151" dy="20" x="46.5"><tspan id="SvgjsTspan1152" style="text-decoration:;">RESTful</tspan></tspan><tspan id="SvgjsTspan1153" dy="20" x="46.5"><tspan id="SvgjsTspan1154" style="text-decoration:;">API</tspan></tspan></text></g></g><g id="SvgjsG1155" transform="translate(526.5437450408936,117.99999618530273)"><path id="SvgjsPath1156" d="M0 0L116 0L116 120L0 120Z " stroke="rgba(50,50,50,1)" stroke-width="2" fill-opacity="1" fill="#e0e0e0"></path><g id="SvgjsG1157"><text id="SvgjsText1158" font-family="微软雅黑" text-anchor="middle" font-size="16px" width="96px" fill="#323232" font-weight="400" align="middle" lineHeight="125%" font-style="" opacity="1" y="36" transform="rotate(0)"><tspan id="SvgjsTspan1159" dy="20" x="58"><tspan id="SvgjsTspan1160" style="text-decoration:;">Spring Data </tspan></tspan><tspan id="SvgjsTspan1161" dy="20" x="58"><tspan id="SvgjsTspan1162" style="text-decoration:;">JPA</tspan></tspan></text></g></g><g id="SvgjsG1163" transform="translate(658.2781133651733,162.99999618530273)"><path id="SvgjsPath1164" d="M0 9.9L55 9.9L55 0L70 15L55 30L55 20.1L0 20.1L0 9.9Z " stroke="rgba(50,50,50,1)" stroke-width="2" fill-opacity="1" fill="#ffeb3b"></path><g id="SvgjsG1165"><text id="SvgjsText1166" font-family="微软雅黑" text-anchor="middle" font-size="13px" width="70px" fill="#323232" font-weight="400" align="middle" lineHeight="125%" font-style="" opacity="1" y="4.375000000000001" transform="rotate(0)"></text></g></g><g id="SvgjsG1167" transform="translate(654.2124938964844,195.49999618530273)"><path id="SvgjsPath1168" d="M0 15L15 0L15 9.9L70 9.9L70 20.1L15 20.1L15 30L0 15Z " stroke="rgba(50,50,50,1)" stroke-width="2" fill-opacity="1" fill="#ffeb3b"></path><g id="SvgjsG1169"><text id="SvgjsText1170" font-family="微软雅黑" text-anchor="middle" font-size="13px" width="70px" fill="#323232" font-weight="400" align="middle" lineHeight="125%" font-style="" opacity="1" y="4.375000000000001" transform="rotate(0)"></text></g></g><g id="SvgjsG1171" transform="translate(288.11248779296875,117.99999618530273)"><path id="SvgjsPath1172" d="M0 0L63.20001220703125 0L63.20001220703125 120L0 120Z " stroke-dasharray="3,4" stroke="rgba(50,50,50,1)" stroke-width="2" fill-opacity="1" fill="#ffffff"></path><g id="SvgjsG1173"><text id="SvgjsText1174" font-family="微软雅黑" text-anchor="middle" font-size="13px" width="44px" fill="#323232" font-weight="400" align="middle" lineHeight="125%" font-style="" opacity="1" y="49.375" transform="rotate(0)"></text></g></g><g id="SvgjsG1175" transform="translate(259.7124938964844,123.24999237060547)"><path id="SvgjsPath1176" d="M0 0L120 0L120 40L0 40Z " stroke="none" fill="none"></path><g id="SvgjsG1177"><text id="SvgjsText1178" font-family="微软雅黑" text-anchor="middle" font-size="15px" width="120px" fill="#323232" font-weight="400" align="middle" lineHeight="125%" font-style="" opacity="1" y="8.125" transform="rotate(0)"><tspan id="SvgjsTspan1179" dy="18" x="60"><tspan id="SvgjsTspan1180" style="text-decoration:;">HTTP</tspan></tspan></text></g></g><g id="SvgjsG1181" transform="translate(264.1187343597412,160.49999618530273)"><path id="SvgjsPath1182" d="M0 11.55L132.5 11.55L132.5 0L150 17.5L132.5 35L132.5 23.450000000000003L0 23.450000000000003L0 11.55Z " stroke="rgba(50,50,50,1)" stroke-width="2" fill-opacity="1" fill="#ffeb3b"></path><g id="SvgjsG1183"><text id="SvgjsText1184" font-family="微软雅黑" text-anchor="middle" font-size="13px" width="150px" fill="#323232" font-weight="400" align="middle" lineHeight="125%" font-style="" opacity="1" y="6.875" transform="rotate(0)"></text></g></g><g id="SvgjsG1185" transform="translate(259.7124938964844,192.99999618530273)"><path id="SvgjsPath1186" d="M0 17.5L17.5 0L17.5 11.55L150 11.55L150 23.450000000000003L17.5 23.450000000000003L17.5 35L0 17.5Z " stroke="rgba(50,50,50,1)" stroke-width="2" fill-opacity="1" fill="#ffeb3b"></path><g id="SvgjsG1187"><text id="SvgjsText1188" font-family="微软雅黑" text-anchor="middle" font-size="13px" width="150px" fill="#323232" font-weight="400" align="middle" lineHeight="125%" font-style="" opacity="1" y="6.875" transform="rotate(0)"></text></g></g></svg>