<?xml version="1.0" standalone="no"?><?xml-stylesheet type="text/css" href="https://www.processon.com/themes/default/mind/icons/icons.css" ?><!DOCTYPE svg PUBLIC "-//W3C//DTD SVG 1.1//EN" "http://www.w3.org/Graphics/SVG/1.1/DTD/svg11.dtd"><svg id="SvgjsSvg1163" xmlns="http://www.w3.org/2000/svg" version="1.1" xmlns:xlink="http://www.w3.org/1999/xlink" xmlns:svgjs="http://svgjs.com/svgjs" width="695.6875305175781" height="626.6124877929688"><rect fill="url(#pattern_mark)" transform="translate(-167.5999755859375,-51.987499952316284)" width="1050" height="1500" id="rect_mark" pointer-events="none"></rect><defs id="SvgjsDefs1164"><marker id="SvgjsMarker1237" markerWidth="14" markerHeight="10" refX="10" refY="5" viewBox="0 0 14 10" orient="auto" markerUnits="userSpaceOnUse" stroke-dasharray="0,0"><path id="SvgjsPath1238" d="M0 0L14 5L0 10L0 0 " fill="#000000" stroke="#000000" stroke-width="1"></path></marker><marker id="SvgjsMarker1241" markerWidth="14" markerHeight="10" refX="10" refY="5" viewBox="0 0 14 10" orient="auto" markerUnits="userSpaceOnUse" stroke-dasharray="0,0"><path id="SvgjsPath1242" d="M0 0L14 5L0 10L0 0 " fill="#000000" stroke="#000000" stroke-width="1"></path></marker><marker id="SvgjsMarker1245" markerWidth="14" markerHeight="10" refX="10" refY="5" viewBox="0 0 14 10" orient="auto" markerUnits="userSpaceOnUse" stroke-dasharray="0,0"><path id="SvgjsPath1246" d="M0 0L14 5L0 10L0 0 " fill="#000000" stroke="#000000" stroke-width="1"></path></marker><marker id="SvgjsMarker1249" markerWidth="14" markerHeight="10" refX="10" refY="5" viewBox="0 0 14 10" orient="auto" markerUnits="userSpaceOnUse" stroke-dasharray="0,0"><path id="SvgjsPath1250" d="M0 0L14 5L0 10L0 0 " fill="#000000" stroke="#000000" stroke-width="1"></path></marker><marker id="SvgjsMarker1253" markerWidth="14" markerHeight="10" refX="10" refY="5" viewBox="0 0 14 10" orient="auto" markerUnits="userSpaceOnUse" stroke-dasharray="0,0"><path id="SvgjsPath1254" d="M0 0L14 5L0 10L0 0 " fill="#000000" stroke="#000000" stroke-width="1"></path></marker><marker id="SvgjsMarker1257" markerWidth="14" markerHeight="10" refX="10" refY="5" viewBox="0 0 14 10" orient="auto" markerUnits="userSpaceOnUse" stroke-dasharray="0,0"><path id="SvgjsPath1258" d="M0 0L14 5L0 10L0 0 " fill="#000000" stroke="#000000" stroke-width="1"></path></marker><marker id="SvgjsMarker1261" markerWidth="14" markerHeight="10" refX="10" refY="5" viewBox="0 0 14 10" orient="auto" markerUnits="userSpaceOnUse" stroke-dasharray="0,0"><path id="SvgjsPath1262" d="M0 0L14 5L0 10L0 0 " fill="#000000" stroke="#000000" stroke-width="1"></path></marker><marker id="SvgjsMarker1265" markerWidth="14" markerHeight="10" refX="10" refY="5" viewBox="0 0 14 10" orient="auto" markerUnits="userSpaceOnUse" stroke-dasharray="0,0"><path id="SvgjsPath1266" d="M0 0L14 5L0 10L0 0 " fill="#000000" stroke="#000000" stroke-width="1"></path></marker><marker id="SvgjsMarker1269" markerWidth="14" markerHeight="10" refX="10" refY="5" viewBox="0 0 14 10" orient="auto" markerUnits="userSpaceOnUse" stroke-dasharray="0,0"><path id="SvgjsPath1270" d="M0 0L14 5L0 10L0 0 " fill="#000000" stroke="#000000" stroke-width="1"></path></marker><marker id="SvgjsMarker1273" markerWidth="14" markerHeight="10" refX="10" refY="5" viewBox="0 0 14 10" orient="auto" markerUnits="userSpaceOnUse" stroke-dasharray="0,0"><path id="SvgjsPath1274" d="M0 0L14 5L0 10L0 0 " fill="#000000" stroke="#000000" stroke-width="1"></path></marker><marker id="SvgjsMarker1283" markerWidth="14" markerHeight="10" refX="10" refY="5" viewBox="0 0 14 10" orient="auto" markerUnits="userSpaceOnUse" stroke-dasharray="0,0"><path id="SvgjsPath1284" d="M0 0L14 5L0 10L0 0 " fill="#000000" stroke="#000000" stroke-width="1"></path></marker><marker id="SvgjsMarker1299" markerWidth="14" markerHeight="10" refX="10" refY="5" viewBox="0 0 14 10" orient="auto" markerUnits="userSpaceOnUse" stroke-dasharray="0,0"><path id="SvgjsPath1300" d="M0 0L14 5L0 10L0 0 " fill="#000000" stroke="#000000" stroke-width="1"></path></marker><marker id="SvgjsMarker1309" markerWidth="14" markerHeight="10" refX="10" refY="5" viewBox="0 0 14 10" orient="auto" markerUnits="userSpaceOnUse" stroke-dasharray="0,0"><path id="SvgjsPath1310" d="M0 0L14 5L0 10L0 0 " fill="#000000" stroke="#000000" stroke-width="1"></path></marker><marker id="SvgjsMarker1313" markerWidth="14" markerHeight="10" refX="10" refY="5" viewBox="0 0 14 10" orient="auto" markerUnits="userSpaceOnUse" stroke-dasharray="0,0"><path id="SvgjsPath1314" d="M0 0L14 5L0 10L0 0 " fill="#000000" stroke="#000000" stroke-width="1"></path></marker><pattern patternUnits="userSpaceOnUse" id="pattern_mark" width="300" height="300"><text x="-50" y="150" fill="rgba(229,229,229,0.8)" font-size="18" transform="rotate(-45, 150, 150)"></text></pattern></defs><g id="SvgjsG1165" transform="translate(25.000015258789062,117.81249976158142)"><path id="SvgjsPath1166" d="M0 4Q0 0 4 0L414 0Q418 0 418 4L418 329Q418 333 414 333L4 333Q0 333 0 329Z " stroke="rgba(76,175,80,1)" stroke-width="2" fill-opacity="1" fill="#ffffff"></path><g id="SvgjsG1167"><text id="SvgjsText1168" font-family="微软雅黑" text-anchor="middle" font-size="15px" width="398px" fill="#323232" font-weight="400" align="middle" lineHeight="125%" font-style="" opacity="1" y="154.625" transform="rotate(0)"></text></g></g><g id="SvgjsG1169" transform="translate(182.00001525878906,25.0124933719635)"><path id="SvgjsPath1170" d="M0 23.5C0 -7.833333333333333 104 -7.833333333333333 104 23.5C104 54.833333333333336 0 54.833333333333336 0 23.5Z " stroke="rgba(50,50,50,1)" stroke-width="2" fill-opacity="1" fill="#ffeb3b"></path><g id="SvgjsG1171"><text id="SvgjsText1172" font-family="微软雅黑" text-anchor="middle" font-size="15px" width="84px" fill="#323232" font-weight="400" align="middle" lineHeight="125%" font-style="" opacity="1" y="11.625" transform="rotate(0)"><tspan id="SvgjsTspan1173" dy="18" x="52"><tspan id="SvgjsTspan1174" style="text-decoration:;">客户端</tspan></tspan></text></g></g><g id="SvgjsG1175" transform="translate(182.00001525878906,138.6124985218048)"><path id="SvgjsPath1176" d="M0 23.5C0 -7.833333333333333 104 -7.833333333333333 104 23.5C104 54.833333333333336 0 54.833333333333336 0 23.5Z " stroke="rgba(50,50,50,1)" stroke-width="2" fill-opacity="1" fill="#ffeb3b"></path><g id="SvgjsG1177"><text id="SvgjsText1178" font-family="微软雅黑" text-anchor="middle" font-size="15px" width="84px" fill="#323232" font-weight="400" align="middle" lineHeight="125%" font-style="" opacity="1" y="11.625" transform="rotate(0)"><tspan id="SvgjsTspan1179" dy="18" x="52"><tspan id="SvgjsTspan1180" style="text-decoration:;">连接器</tspan></tspan></text></g></g><g id="SvgjsG1181" transform="translate(71.00001525878906,214.6124985218048)"><path id="SvgjsPath1182" d="M0 23.5C0 -7.833333333333333 104 -7.833333333333333 104 23.5C104 54.833333333333336 0 54.833333333333336 0 23.5Z " stroke="rgba(50,50,50,1)" stroke-width="2" fill-opacity="1" fill="#ffeb3b"></path><g id="SvgjsG1183"><text id="SvgjsText1184" font-family="微软雅黑" text-anchor="middle" font-size="15px" width="84px" fill="#323232" font-weight="400" align="middle" lineHeight="125%" font-style="" opacity="1" y="11.625" transform="rotate(0)"><tspan id="SvgjsTspan1185" dy="18" x="52"><tspan id="SvgjsTspan1186" style="text-decoration:;">查询缓存</tspan></tspan></text></g></g><g id="SvgjsG1187" transform="translate(301.00001525878906,214.6124985218048)"><path id="SvgjsPath1188" d="M0 23.5C0 -7.833333333333333 104 -7.833333333333333 104 23.5C104 54.833333333333336 0 54.833333333333336 0 23.5Z " stroke="rgba(50,50,50,1)" stroke-width="2" fill-opacity="1" fill="#ffeb3b"></path><g id="SvgjsG1189"><text id="SvgjsText1190" font-family="微软雅黑" text-anchor="middle" font-size="15px" width="84px" fill="#323232" font-weight="400" align="middle" lineHeight="125%" font-style="" opacity="1" y="11.625" transform="rotate(0)"><tspan id="SvgjsTspan1191" dy="18" x="52"><tspan id="SvgjsTspan1192" style="text-decoration:;">分析器</tspan></tspan></text></g></g><g id="SvgjsG1193" transform="translate(301.00001525878906,295.11250042915344)"><path id="SvgjsPath1194" d="M0 23.5C0 -7.833333333333333 104 -7.833333333333333 104 23.5C104 54.833333333333336 0 54.833333333333336 0 23.5Z " stroke="rgba(50,50,50,1)" stroke-width="2" fill-opacity="1" fill="#ffeb3b"></path><g id="SvgjsG1195"><text id="SvgjsText1196" font-family="微软雅黑" text-anchor="middle" font-size="15px" width="84px" fill="#323232" font-weight="400" align="middle" lineHeight="125%" font-style="" opacity="1" y="11.625" transform="rotate(0)"><tspan id="SvgjsTspan1197" dy="18" x="52"><tspan id="SvgjsTspan1198" style="text-decoration:;">优化器</tspan></tspan></text></g></g><g id="SvgjsG1199" transform="translate(301.00001525878906,375.6125023365021)"><path id="SvgjsPath1200" d="M0 23.5C0 -7.833333333333333 104 -7.833333333333333 104 23.5C104 54.833333333333336 0 54.833333333333336 0 23.5Z " stroke="rgba(50,50,50,1)" stroke-width="2" fill-opacity="1" fill="#ffeb3b"></path><g id="SvgjsG1201"><text id="SvgjsText1202" font-family="微软雅黑" text-anchor="middle" font-size="15px" width="84px" fill="#323232" font-weight="400" align="middle" lineHeight="125%" font-style="" opacity="1" y="11.625" transform="rotate(0)"><tspan id="SvgjsTspan1203" dy="18" x="52"><tspan id="SvgjsTspan1204" style="text-decoration:;">执行器</tspan></tspan></text></g></g><g id="SvgjsG1205" transform="translate(78.00001525878906,378.6125023365021)"><path id="SvgjsPath1206" d="M0 0L86 0L102 16L102 41L0 41L0 0Z " stroke="none" fill-opacity="1" fill="#ffffaa"></path><path id="SvgjsPath1207" d="M86 0L86 16L102 16Z " stroke="none" fill-opacity="1" fill="#cdcdcd"></path><path id="SvgjsPath1208" d="M0 0L86 0L102 16L102 41L0 41L0 0Z " stroke="none" fill="none"></path><g id="SvgjsG1209"><text id="SvgjsText1210" font-family="微软雅黑" text-anchor="middle" font-size="15px" width="82px" fill="#323232" font-weight="400" align="middle" lineHeight="125%" font-style="" opacity="1" y="8.625" transform="rotate(0)"><tspan id="SvgjsTspan1211" dy="18" x="51"><tspan id="SvgjsTspan1212" style="text-decoration:;">Server 层</tspan></tspan></text></g></g><g id="SvgjsG1213" transform="translate(25.000015258789062,496.61250615119934)"><path id="SvgjsPath1214" d="M0 4Q0 0 4 0L414 0Q418 0 418 4L418 101Q418 105 414 105L4 105Q0 105 0 101Z " stroke="rgba(76,175,80,1)" stroke-width="2" fill-opacity="1" fill="#ffffff"></path><g id="SvgjsG1215"><text id="SvgjsText1216" font-family="微软雅黑" text-anchor="middle" font-size="15px" width="398px" fill="#323232" font-weight="400" align="middle" lineHeight="125%" font-style="" opacity="1" y="40.625" transform="rotate(0)"></text></g></g><g id="SvgjsG1217" transform="translate(49.00001525878906,520.6125061511993)"><path id="SvgjsPath1218" d="M0 28.5C0 -9.5 108 -9.5 108 28.5C108 66.5 0 66.5 0 28.5Z " stroke="rgba(50,50,50,1)" stroke-width="2" fill-opacity="1" fill="#2196f3"></path><g id="SvgjsG1219"><text id="SvgjsText1220" font-family="微软雅黑" text-anchor="middle" font-size="15px" width="88px" fill="#323232" font-weight="400" align="middle" lineHeight="125%" font-style="" opacity="1" y="16.625" transform="rotate(0)"><tspan id="SvgjsTspan1221" dy="18" x="54"><tspan id="SvgjsTspan1222" style="text-decoration:;">存储引擎</tspan></tspan></text></g></g><g id="SvgjsG1223" transform="translate(180.00001525878906,520.6125061511993)"><path id="SvgjsPath1224" d="M0 28.5C0 -9.5 108 -9.5 108 28.5C108 66.5 0 66.5 0 28.5Z " stroke="rgba(50,50,50,1)" stroke-width="2" fill-opacity="1" fill="#2196f3"></path><g id="SvgjsG1225"><text id="SvgjsText1226" font-family="微软雅黑" text-anchor="middle" font-size="15px" width="88px" fill="#323232" font-weight="400" align="middle" lineHeight="125%" font-style="" opacity="1" y="16.625" transform="rotate(0)"><tspan id="SvgjsTspan1227" dy="18" x="54"><tspan id="SvgjsTspan1228" style="text-decoration:;">存储引擎</tspan></tspan></text></g></g><g id="SvgjsG1229" transform="translate(311.00001525878906,520.6125061511993)"><path id="SvgjsPath1230" d="M0 28.5C0 -9.5 108 -9.5 108 28.5C108 66.5 0 66.5 0 28.5Z " stroke="rgba(50,50,50,1)" stroke-width="2" fill-opacity="1" fill="#2196f3"></path><g id="SvgjsG1231"><text id="SvgjsText1232" font-family="微软雅黑" text-anchor="middle" font-size="15px" width="88px" fill="#323232" font-weight="400" align="middle" lineHeight="125%" font-style="" opacity="1" y="16.625" transform="rotate(0)"><tspan id="SvgjsTspan1233" dy="18" x="54"><tspan id="SvgjsTspan1234" style="text-decoration:;">存储引擎</tspan></tspan></text></g></g><g id="SvgjsG1235"><path id="SvgjsPath1236" d="M234.00001525878906 73.0124933719635L234.00001525878906 105.31249594688416L234.00001525878906 105.31249594688416L234.00001525878906 135.01249852180482 " stroke="#000000" stroke-width="2" fill="none" marker-end="url(#SvgjsMarker1237)"></path></g><g id="SvgjsG1239"><path id="SvgjsPath1240" d="M181.00001525878906 162.1124985218048L123.00001525878906 162.1124985218048L123.00001525878906 211.0124985218048 " stroke="#000000" stroke-width="2" fill="none" marker-end="url(#SvgjsMarker1241)"></path></g><g id="SvgjsG1243"><path id="SvgjsPath1244" d="M287.00001525878906 162.1124985218048L353.00001525878906 162.1124985218048L353.00001525878906 211.0124985218048 " stroke="#000000" stroke-width="2" fill="none" marker-end="url(#SvgjsMarker1245)"></path></g><g id="SvgjsG1247"><path id="SvgjsPath1248" d="M300.00001525878906 238.1124985218048L238.00001525878906 238.1124985218048L238.00001525878906 238.1124985218048L178.60001525878909 238.1124985218048 " stroke="#000000" stroke-width="2" fill="none" marker-end="url(#SvgjsMarker1249)"></path></g><g id="SvgjsG1251"><path id="SvgjsPath1252" d="M353.00001525878906 262.6124985218048L353.00001525878906 278.3624994754791L353.00001525878906 278.3624994754791L353.00001525878906 291.5125004291534 " stroke="#000000" stroke-width="2" fill="none" marker-end="url(#SvgjsMarker1253)"></path></g><g id="SvgjsG1255"><path id="SvgjsPath1256" d="M353.00001525878906 343.11250042915344L353.00001525878906 358.86250138282776L353.00001525878906 358.86250138282776L353.00001525878906 372.01250233650205 " stroke="#000000" stroke-width="2" fill="none" marker-end="url(#SvgjsMarker1257)"></path></g><g id="SvgjsG1259"><path id="SvgjsPath1260" d="M255.74119621368652 71.04656754567443L255.74119621368652 105.30674466325792L255.4790707257883 105.30674466325792L255.4790707257883 136.96692178084143 " stroke="#000000" stroke-width="2" fill="none" marker-end="url(#SvgjsMarker1261)"></path></g><g id="SvgjsG1263"><path id="SvgjsPath1264" d="M211.34731161412293 70.04287786593909L211.34731161412293 104.88970605052356L211.34731161412293 104.88970605052356L211.34731161412293 137.13653423510803 " stroke="#000000" stroke-width="2" fill="none" marker-end="url(#SvgjsMarker1265)"></path></g><g id="SvgjsG1267"><path id="SvgjsPath1268" d="M234.00001525878906 451.8124997615814L234.00001525878906 473.7125029563904L234.00001525878906 473.7125029563904L234.00001525878906 493.0125061511993 " stroke="#000000" stroke-width="2" fill="none" marker-end="url(#SvgjsMarker1269)"></path></g><g id="SvgjsG1271"><path id="SvgjsPath1272" d="M428.00001525878895 161.86249995231628L461.50001525878895 161.86249995231628L461.50001525878895 162.1124985218048L491.4000152587889 162.1124985218048 " stroke-dasharray="3,3" stroke="#000000" stroke-width="2" fill="none" marker-end="url(#SvgjsMarker1273)"></path></g><g id="SvgjsG1275" transform="translate(495.00001525878895,145.51250004768372)"><path id="SvgjsPath1276" d="M0 0L147 0L147 33.19999694824219L0 33.19999694824219Z " stroke="none" fill="none"></path><g id="SvgjsG1277"><text id="SvgjsText1278" font-family="微软雅黑" text-anchor="middle" font-size="15px" width="147px" fill="#323232" font-weight="400" align="middle" lineHeight="125%" font-style="" opacity="1" y="4.724998474121094" transform="rotate(0)"><tspan id="SvgjsTspan1279" dy="18" x="73.5"><tspan id="SvgjsTspan1280" style="text-decoration:;">管理连接，验证权限</tspan></tspan></text></g></g><g id="SvgjsG1281"><path id="SvgjsPath1282" d="M428.00001525878895 237.86249995231628L461.50001525878895 237.86249995231628L461.50001525878895 238.1124985218048L491.4000152587889 238.1124985218048 " stroke-dasharray="3,3" stroke="#000000" stroke-width="2" fill="none" marker-end="url(#SvgjsMarker1283)"></path></g><g id="SvgjsG1285" transform="translate(495.00001525878895,221.51250004768372)"><path id="SvgjsPath1286" d="M0 0L147 0L147 33.19999694824219L0 33.19999694824219Z " stroke="none" fill="none"></path><g id="SvgjsG1287"><text id="SvgjsText1288" font-family="微软雅黑" text-anchor="middle" font-size="15px" width="147px" fill="#323232" font-weight="400" align="middle" lineHeight="125%" font-style="" opacity="1" y="4.724998474121094" transform="rotate(0)"><tspan id="SvgjsTspan1289" dy="18" x="73.5"><tspan id="SvgjsTspan1290" style="text-decoration:;">词法分析，语法分析</tspan></tspan></text></g></g><g id="SvgjsG1291" transform="translate(495.00001525878884,302.01250195503235)"><path id="SvgjsPath1292" d="M0 0L175.2888912624785 0L175.2888912624785 33.19999694824219L0 33.19999694824219Z " stroke="none" fill="none"></path><g id="SvgjsG1293"><text id="SvgjsText1294" font-family="微软雅黑" text-anchor="middle" font-size="15px" width="176px" fill="#323232" font-weight="400" align="middle" lineHeight="125%" font-style="" opacity="1" y="4.724998474121094" transform="rotate(0)"><tspan id="SvgjsTspan1295" dy="18" x="88"><tspan id="SvgjsTspan1296" style="text-decoration:;">生成执行计划，选择索引</tspan></tspan></text></g></g><g id="SvgjsG1297"><path id="SvgjsPath1298" d="M428.00001525878906 398.86250376701355L461.50001525878906 398.86250376701355L461.50001525878906 399.1125023365021L491.40001525878904 399.1125023365021 " stroke-dasharray="3,3" stroke="#000000" stroke-width="2" fill="none" marker-end="url(#SvgjsMarker1299)"></path></g><g id="SvgjsG1301" transform="translate(495.00001525878906,382.512503862381)"><path id="SvgjsPath1302" d="M0 0L147 0L147 33.19999694824219L0 33.19999694824219Z " stroke="none" fill="none"></path><g id="SvgjsG1303"><text id="SvgjsText1304" font-family="微软雅黑" text-anchor="middle" font-size="15px" width="147px" fill="#323232" font-weight="400" align="middle" lineHeight="125%" font-style="" opacity="1" y="4.724998474121094" transform="rotate(0)"><tspan id="SvgjsTspan1305" dy="18" x="73.5"><tspan id="SvgjsTspan1306" style="text-decoration:;">操作引擎，返回结果</tspan></tspan></text></g></g><g id="SvgjsG1307"><path id="SvgjsPath1308" d="M425.77779303656735 318.61250042915344L460.3889041476781 318.61250042915344L460.3889041476781 318.61250042915344L491.4000152587888 318.61250042915344 " stroke-dasharray="3,3" stroke="#000000" stroke-width="2" fill="none" marker-end="url(#SvgjsMarker1309)"></path></g><g id="SvgjsG1311"><path id="SvgjsPath1312" d="M428.0000152587893 548.8625075817109L457.84446546766515 548.8625075817109L457.84446546766515 549.1125061511995L484.088915676541 549.1125061511995 " stroke-dasharray="3,3" stroke="#000000" stroke-width="2" fill="none" marker-end="url(#SvgjsMarker1313)"></path></g><g id="SvgjsG1315" transform="translate(487.688915676541,532.5125076770782)"><path id="SvgjsPath1316" d="M0 0L182.59999084472634 0L182.59999084472634 33.19999694824219L0 33.19999694824219Z " stroke="none" fill="none"></path><g id="SvgjsG1317"><text id="SvgjsText1318" font-family="微软雅黑" text-anchor="middle" font-size="15px" width="183px" fill="#323232" font-weight="400" align="middle" lineHeight="125%" font-style="" opacity="1" y="4.724998474121094" transform="rotate(0)"><tspan id="SvgjsTspan1319" dy="18" x="91.5"><tspan id="SvgjsTspan1320" style="text-decoration:;">存储数据，提供读写接口</tspan></tspan></text></g></g></svg>