<?xml version="1.0" standalone="no"?><?xml-stylesheet type="text/css" href="https://www.processon.com/themes/default/mind/icons/icons.css" ?><!DOCTYPE svg PUBLIC "-//W3C//DTD SVG 1.1//EN" "http://www.w3.org/Graphics/SVG/1.1/DTD/svg11.dtd"><svg id="SvgjsSvg1181" xmlns="http://www.w3.org/2000/svg" version="1.1" xmlns:xlink="http://www.w3.org/1999/xlink" xmlns:svgjs="http://svgjs.com/svgjs" width="927" height="140"><rect fill="url(#pattern_mark)" transform="translate(-19.599990844726562,-357.6000213623047)" width="1050" height="1500" id="rect_mark" pointer-events="none"></rect><defs id="SvgjsDefs1182"><marker id="SvgjsMarker1203" markerWidth="14" markerHeight="10" refX="10" refY="5" viewBox="0 0 14 10" orient="auto" markerUnits="userSpaceOnUse" stroke-dasharray="0,0"><path id="SvgjsPath1204" d="M0 0L14 5L0 10L0 0 " fill="#323232" stroke="#323232" stroke-width="1"></path></marker><marker id="SvgjsMarker1213" markerWidth="14" markerHeight="10" refX="10" refY="5" viewBox="0 0 14 10" orient="auto" markerUnits="userSpaceOnUse" stroke-dasharray="0,0"><path id="SvgjsPath1214" d="M0 0L14 5L0 10L0 0 " fill="#323232" stroke="#323232" stroke-width="1"></path></marker><marker id="SvgjsMarker1241" markerWidth="14" markerHeight="10" refX="10" refY="5" viewBox="0 0 14 10" orient="auto" markerUnits="userSpaceOnUse" stroke-dasharray="0,0"><path id="SvgjsPath1242" d="M0 0L14 5L0 10L0 0 " fill="#323232" stroke="#323232" stroke-width="1"></path></marker><marker id="SvgjsMarker1261" markerWidth="14" markerHeight="10" refX="10" refY="5" viewBox="0 0 14 10" orient="auto" markerUnits="userSpaceOnUse" stroke-dasharray="0,0"><path id="SvgjsPath1262" d="M0 0L14 5L0 10L0 0 " fill="#323232" stroke="#323232" stroke-width="1"></path></marker><pattern patternUnits="userSpaceOnUse" id="pattern_mark" width="300" height="300"><text x="-50" y="150" fill="rgba(229,229,229,0.8)" font-size="18" transform="rotate(-45, 150, 150)"></text></pattern></defs><g id="SvgjsG1183" transform="translate(25,24.99997866153717)"><path id="SvgjsPath1184" d="M0 4Q0 0 4 0L125 0Q129 0 129 4L129 87Q129 91 125 91L4 91Q0 91 0 87Z " stroke="rgba(0,0,0,1)" stroke-width="2" fill-opacity="1" fill="#ffffff"></path><g id="SvgjsG1185"><text id="SvgjsText1186" font-family="微软雅黑" text-anchor="middle" font-size="15px" width="109px" fill="#323232" font-weight="400" align="middle" lineHeight="125%" font-style="" opacity="1" y="24.125" transform="rotate(0)"><tspan id="SvgjsTspan1187" dy="18" x="64.5"><tspan id="SvgjsTspan1188" style="text-decoration:;">需求分析</tspan></tspan><tspan id="SvgjsTspan1189" dy="18" x="64.5"><tspan id="SvgjsTspan1190" style="text-decoration:;">定义实体</tspan></tspan></text></g></g><g id="SvgjsG1191" transform="translate(212,24.99997866153717)"><path id="SvgjsPath1192" d="M0 4Q0 0 4 0L125 0Q129 0 129 4L129 87Q129 91 125 91L4 91Q0 91 0 87Z " stroke="rgba(50,50,50,1)" stroke-width="2" fill-opacity="1" fill="#ffffff"></path><g id="SvgjsG1193"><text id="SvgjsText1194" font-family="微软雅黑" text-anchor="middle" font-size="15px" width="109px" fill="#323232" font-weight="400" align="middle" lineHeight="125%" font-style="" opacity="1" y="15.125" transform="rotate(0)"><tspan id="SvgjsTspan1195" dy="18" x="64.5"><tspan id="SvgjsTspan1196" style="text-decoration:;">定义实体关联</tspan></tspan><tspan id="SvgjsTspan1197" dy="18" x="64.5"><tspan id="SvgjsTspan1198" style="text-decoration:;">绘制 E-R 图</tspan></tspan><tspan id="SvgjsTspan1199" dy="18" x="64.5"><tspan id="SvgjsTspan1200" style="text-decoration:;">消除冗余关联</tspan></tspan></text></g></g><g id="SvgjsG1201"><path id="SvgjsPath1202" d="M155 70.49997866153717L183 70.49997866153717L183 70.49997866153717L208.4 70.49997866153717 " stroke="#323232" stroke-width="2" fill="none" marker-end="url(#SvgjsMarker1203)"></path><rect id="SvgjsRect1205" width="30" height="37" x="166.7" y="51.99997866153717" fill="#ffffff"></rect><text id="SvgjsText1206" font-family="微软雅黑" text-anchor="middle" font-size="15px" width="30px" fill="#323232" font-weight="400" align="top" lineHeight="19px" font-style="" opacity="1" y="49.12497866153717" transform="rotate(0)"><tspan id="SvgjsTspan1207" dy="18" x="181.7"><tspan id="SvgjsTspan1208" style="text-decoration:;">概念</tspan></tspan><tspan id="SvgjsTspan1209" dy="18" x="181.7"><tspan id="SvgjsTspan1210" style="text-decoration:;">设计</tspan></tspan></text></g><g id="SvgjsG1211"><path id="SvgjsPath1212" d="M342 70.49997866153717L370 70.49997866153717L370 70.49997866153717L395.4 70.49997866153717 " stroke="#323232" stroke-width="2" fill="none" marker-end="url(#SvgjsMarker1213)"></path><rect id="SvgjsRect1215" width="30" height="37" x="353.7" y="51.99997866153717" fill="#ffffff"></rect><text id="SvgjsText1216" font-family="微软雅黑" text-anchor="middle" font-size="15px" width="30px" fill="#323232" font-weight="400" align="top" lineHeight="19px" font-style="" opacity="1" y="49.12497866153717" transform="rotate(0)"><tspan id="SvgjsTspan1217" dy="18" x="368.7"><tspan id="SvgjsTspan1218" style="text-decoration:;">逻辑</tspan></tspan><tspan id="SvgjsTspan1219" dy="18" x="368.7"><tspan id="SvgjsTspan1220" style="text-decoration:;">设计</tspan></tspan></text></g><g id="SvgjsG1221" transform="translate(399,24.99997866153717)"><path id="SvgjsPath1222" d="M0 4Q0 0 4 0L125 0Q129 0 129 4L129 87Q129 91 125 91L4 91Q0 91 0 87Z " stroke="rgba(50,50,50,1)" stroke-width="2" fill-opacity="1" fill="#ffffff"></path><g id="SvgjsG1223"><text id="SvgjsText1224" font-family="微软雅黑" text-anchor="middle" font-size="15px" width="109px" fill="#323232" font-weight="400" align="middle" lineHeight="125%" font-style="" opacity="1" y="15.125" transform="rotate(0)"><tspan id="SvgjsTspan1225" dy="18" x="64.5"><tspan id="SvgjsTspan1226" style="text-decoration:;">构建 tables 和 </tspan></tspan><tspan id="SvgjsTspan1227" dy="18" x="64.5"><tspan id="SvgjsTspan1228" style="text-decoration:;">columns 并确</tspan></tspan><tspan id="SvgjsTspan1229" dy="18" x="64.5"><tspan id="SvgjsTspan1230" style="text-decoration:;">定主键</tspan></tspan></text></g></g><g id="SvgjsG1231" transform="translate(586,24.99997866153717)"><path id="SvgjsPath1232" d="M0 4Q0 0 4 0L125 0Q129 0 129 4L129 87Q129 91 125 91L4 91Q0 91 0 87Z " stroke="rgba(50,50,50,1)" stroke-width="2" fill-opacity="1" fill="#ffffff"></path><g id="SvgjsG1233"><text id="SvgjsText1234" font-family="微软雅黑" text-anchor="middle" font-size="15px" width="109px" fill="#323232" font-weight="400" align="middle" lineHeight="125%" font-style="" opacity="1" y="24.125" transform="rotate(0)"><tspan id="SvgjsTspan1235" dy="18" x="64.5"><tspan id="SvgjsTspan1236" style="text-decoration:;">函数依赖定理</tspan></tspan><tspan id="SvgjsTspan1237" dy="18" x="64.5"><tspan id="SvgjsTspan1238" style="text-decoration:;">范式分解理论</tspan></tspan></text></g></g><g id="SvgjsG1239"><path id="SvgjsPath1240" d="M529 70.49997866153717L557 70.49997866153717L557 70.49997866153717L582.4 70.49997866153717 " stroke="#323232" stroke-width="2" fill="none" marker-end="url(#SvgjsMarker1241)"></path><rect id="SvgjsRect1243" width="30" height="37" x="540.7" y="51.99997866153717" fill="#ffffff"></rect><text id="SvgjsText1244" font-family="微软雅黑" text-anchor="middle" font-size="15px" width="30px" fill="#323232" font-weight="400" align="top" lineHeight="19px" font-style="" opacity="1" y="49.12497866153717" transform="rotate(0)"><tspan id="SvgjsTspan1245" dy="18" x="555.7"><tspan id="SvgjsTspan1246" style="text-decoration:;">模式</tspan></tspan><tspan id="SvgjsTspan1247" dy="18" x="555.7"><tspan id="SvgjsTspan1248" style="text-decoration:;">优化</tspan></tspan></text></g><g id="SvgjsG1249" transform="translate(773,24.99997866153717)"><path id="SvgjsPath1250" d="M0 4Q0 0 4 0L125 0Q129 0 129 4L129 87Q129 91 125 91L4 91Q0 91 0 87Z " stroke="rgba(50,50,50,1)" stroke-width="2" fill-opacity="1" fill="#ffffff"></path><g id="SvgjsG1251"><text id="SvgjsText1252" font-family="微软雅黑" text-anchor="middle" font-size="15px" width="109px" fill="#323232" font-weight="400" align="middle" lineHeight="125%" font-style="" opacity="1" y="15.125" transform="rotate(0)"><tspan id="SvgjsTspan1253" dy="18" x="64.5"><tspan id="SvgjsTspan1254" style="text-decoration:;">确定</tspan></tspan><tspan id="SvgjsTspan1255" dy="18" x="64.5"><tspan id="SvgjsTspan1256" style="text-decoration:;">索引和聚簇</tspan></tspan><tspan id="SvgjsTspan1257" dy="18" x="64.5"><tspan id="SvgjsTspan1258" style="text-decoration:;">规则</tspan></tspan></text></g></g><g id="SvgjsG1259"><path id="SvgjsPath1260" d="M716 70.49997866153717L744 70.49997866153717L744 70.49997866153717L769.4 70.49997866153717 " stroke="#323232" stroke-width="2" fill="none" marker-end="url(#SvgjsMarker1261)"></path><rect id="SvgjsRect1263" width="30" height="37" x="727.7" y="51.99997866153717" fill="#ffffff"></rect><text id="SvgjsText1264" font-family="微软雅黑" text-anchor="middle" font-size="15px" width="30px" fill="#323232" font-weight="400" align="top" lineHeight="19px" font-style="" opacity="1" y="49.12497866153717" transform="rotate(0)"><tspan id="SvgjsTspan1265" dy="18" x="742.7"><tspan id="SvgjsTspan1266" style="text-decoration:;">物理</tspan></tspan><tspan id="SvgjsTspan1267" dy="18" x="742.7"><tspan id="SvgjsTspan1268" style="text-decoration:;">设计</tspan></tspan></text></g></svg>