<?xml version="1.0" standalone="no"?><?xml-stylesheet type="text/css" href="https://www.processon.com/themes/default/mind/icons/icons.css" ?><!DOCTYPE svg PUBLIC "-//W3C//DTD SVG 1.1//EN" "http://www.w3.org/Graphics/SVG/1.1/DTD/svg11.dtd"><svg id="SvgjsSvg1000" xmlns="http://www.w3.org/2000/svg" version="1.1" xmlns:xlink="http://www.w3.org/1999/xlink" xmlns:svgjs="http://svgjs.com/svgjs" width="656.0124816894531" height="463.1750030517578"><rect fill="url(#pattern_mark)" transform="translate(-162.58750915527344,-89.60000801086426)" width="1050" height="1500" id="rect_mark" pointer-events="none"></rect><defs id="SvgjsDefs1001"><marker id="SvgjsMarker1009" markerWidth="14" markerHeight="10" refX="10" refY="5" viewBox="0 0 14 10" orient="auto" markerUnits="userSpaceOnUse" stroke-dasharray="0,0"><path id="SvgjsPath1010" d="M0 0L14 5L0 10L0 0 " fill="#323232" stroke="#323232" stroke-width="1"></path></marker><marker id="SvgjsMarker1035" markerWidth="14" markerHeight="10" refX="10" refY="5" viewBox="0 0 14 10" orient="auto" markerUnits="userSpaceOnUse" stroke-dasharray="0,0"><path id="SvgjsPath1036" d="M0 0L14 5L0 10L0 0 " fill="#323232" stroke="#323232" stroke-width="1"></path></marker><marker id="SvgjsMarker1061" markerWidth="14" markerHeight="10" refX="10" refY="5" viewBox="0 0 14 10" orient="auto" markerUnits="userSpaceOnUse" stroke-dasharray="0,0"><path id="SvgjsPath1062" d="M0 0L14 5L0 10L0 0 " fill="#323232" stroke="#323232" stroke-width="1"></path></marker><marker id="SvgjsMarker1093" markerWidth="14" markerHeight="10" refX="10" refY="5" viewBox="0 0 14 10" orient="auto" markerUnits="userSpaceOnUse" stroke-dasharray="0,0"><path id="SvgjsPath1094" d="M0 0L14 5L0 10L0 0 " fill="#323232" stroke="#323232" stroke-width="1"></path></marker><pattern patternUnits="userSpaceOnUse" id="pattern_mark" width="300" height="300"><text x="-50" y="150" fill="rgba(229,229,229,0.8)" font-size="18" transform="rotate(-45, 150, 150)"></text></pattern></defs><g id="SvgjsG1007"><path id="SvgjsPath1008" d="M115.01248168945312 92.99999046325684L364.5124816894531 92.99999046325684L364.5124816894531 92.99999046325684L614.0124816894531 92.99999046325684 " stroke="#323232" stroke-width="2" fill="none" marker-end="url(#SvgjsMarker1009)"></path></g><g id="SvgjsG1011"><path id="SvgjsPath1012" d="M143.01248168945312 65.99999046325684L143.01248168945312 77.99999046325684L143.01248168945312 77.99999046325684L143.01248168945312 90.99999046325684 " stroke="#323232" stroke-width="2" fill="none"></path></g><g id="SvgjsG1013"><path id="SvgjsPath1014" d="M580.0124816894531 69.99999046325684L580.0124816894531 81.49999046325684L580.0124816894531 81.49999046325684L580.0124816894531 92.99999046325684 " stroke="#323232" stroke-width="2" fill="none"></path></g><g id="SvgjsG1015" transform="translate(83.01248168945312,24.999990463256836)"><path id="SvgjsPath1016" d="M0 0L120 0L120 40L0 40Z " stroke="none" fill="none"></path><g id="SvgjsG1017"><text id="SvgjsText1018" font-family="微软雅黑" text-anchor="middle" font-size="16px" width="120px" fill="#323232" font-weight="400" align="middle" lineHeight="125%" font-style="" opacity="1" y="6" transform="rotate(0)"><tspan id="SvgjsTspan1019" dy="20" x="60"><tspan id="SvgjsTspan1020" style="text-decoration:;">Begin T</tspan></tspan></text></g></g><g id="SvgjsG1021" transform="translate(511.0124816894531,24.999990463256836)"><path id="SvgjsPath1022" d="M0 0L120 0L120 40L0 40Z " stroke="none" fill="none"></path><g id="SvgjsG1023"><text id="SvgjsText1024" font-family="微软雅黑" text-anchor="middle" font-size="16px" width="120px" fill="#323232" font-weight="400" align="middle" lineHeight="125%" font-style="" opacity="1" y="6" transform="rotate(0)"><tspan id="SvgjsTspan1025" dy="20" x="60"><tspan id="SvgjsTspan1026" style="text-decoration:;">Commit T</tspan></tspan></text></g></g><g id="SvgjsG1027" transform="translate(203.01248168945312,68.9999920129776)"><path id="SvgjsPath1028" d="M0 0L296 0L296 24L0 24Z " stroke="rgba(183,28,28,1)" stroke-width="2" fill-opacity="1" fill="#ffffff"></path><g id="SvgjsG1029"><text id="SvgjsText1030" font-family="微软雅黑" text-anchor="middle" font-size="16px" width="276px" fill="#323232" font-weight="400" align="middle" lineHeight="125%" font-style="" opacity="1" y="-2" transform="rotate(0)"><tspan id="SvgjsTspan1031" dy="20" x="148"><tspan id="SvgjsTspan1032" style="text-decoration:;">X Lock (write)</tspan></tspan></text></g></g><g id="SvgjsG1033"><path id="SvgjsPath1034" d="M113.01248168945312 199.99999046325684L362.5124816894531 199.99999046325684L362.5124816894531 199.99999046325684L612.0124816894531 199.99999046325684 " stroke="#323232" stroke-width="2" fill="none" marker-end="url(#SvgjsMarker1035)"></path></g><g id="SvgjsG1037"><path id="SvgjsPath1038" d="M141.01248168945312 172.99999046325684L141.01248168945312 184.99999046325684L141.01248168945312 184.99999046325684L141.01248168945312 197.99999046325684 " stroke="#323232" stroke-width="2" fill="none"></path></g><g id="SvgjsG1039"><path id="SvgjsPath1040" d="M578.0124816894531 176.99999046325684L578.0124816894531 188.49999046325684L578.0124816894531 188.49999046325684L578.0124816894531 199.99999046325684 " stroke="#323232" stroke-width="2" fill="none"></path></g><g id="SvgjsG1041" transform="translate(81.01248168945312,131.99999046325684)"><path id="SvgjsPath1042" d="M0 0L120 0L120 40L0 40Z " stroke="none" fill="none"></path><g id="SvgjsG1043"><text id="SvgjsText1044" font-family="微软雅黑" text-anchor="middle" font-size="16px" width="120px" fill="#323232" font-weight="400" align="middle" lineHeight="125%" font-style="" opacity="1" y="6" transform="rotate(0)"><tspan id="SvgjsTspan1045" dy="20" x="60"><tspan id="SvgjsTspan1046" style="text-decoration:;">Begin T</tspan></tspan></text></g></g><g id="SvgjsG1047" transform="translate(509.0124816894531,131.99999046325684)"><path id="SvgjsPath1048" d="M0 0L120 0L120 40L0 40Z " stroke="none" fill="none"></path><g id="SvgjsG1049"><text id="SvgjsText1050" font-family="微软雅黑" text-anchor="middle" font-size="16px" width="120px" fill="#323232" font-weight="400" align="middle" lineHeight="125%" font-style="" opacity="1" y="6" transform="rotate(0)"><tspan id="SvgjsTspan1051" dy="20" x="60"><tspan id="SvgjsTspan1052" style="text-decoration:;">Commit T</tspan></tspan></text></g></g><g id="SvgjsG1053" transform="translate(285.0124816894531,175.99999046325684)"><path id="SvgjsPath1054" d="M0 0L296 0L296 24.000001549720764L0 24.000001549720764Z " stroke="rgba(183,28,28,1)" stroke-width="2" fill-opacity="1" fill="#ffffff"></path><g id="SvgjsG1055"><text id="SvgjsText1056" font-family="微软雅黑" text-anchor="middle" font-size="16px" width="276px" fill="#323232" font-weight="400" align="middle" lineHeight="125%" font-style="" opacity="1" y="-1.999999225139618" transform="rotate(0)"><tspan id="SvgjsTspan1057" dy="20" x="148"><tspan id="SvgjsTspan1058" style="text-decoration:;">X Lock (write)</tspan></tspan></text></g></g><g id="SvgjsG1059"><path id="SvgjsPath1060" d="M113.01248168945312 306.9999912381172L362.5124816894531 306.9999912381172L362.5124816894531 306.9999912381172L612.0124816894531 306.9999912381172 " stroke="#323232" stroke-width="2" fill="none" marker-end="url(#SvgjsMarker1061)"></path></g><g id="SvgjsG1063"><path id="SvgjsPath1064" d="M141.01248168945312 279.9999912381172L141.01248168945312 291.9999912381172L141.01248168945312 291.9999912381172L141.01248168945312 304.9999912381172 " stroke="#323232" stroke-width="2" fill="none"></path></g><g id="SvgjsG1065"><path id="SvgjsPath1066" d="M578.0124816894531 283.9999912381172L578.0124816894531 295.4999912381172L578.0124816894531 295.4999912381172L578.0124816894531 306.9999912381172 " stroke="#323232" stroke-width="2" fill="none"></path></g><g id="SvgjsG1067" transform="translate(81.01248168945312,238.99999123811722)"><path id="SvgjsPath1068" d="M0 0L120 0L120 40L0 40Z " stroke="none" fill="none"></path><g id="SvgjsG1069"><text id="SvgjsText1070" font-family="微软雅黑" text-anchor="middle" font-size="16px" width="120px" fill="#323232" font-weight="400" align="middle" lineHeight="125%" font-style="" opacity="1" y="6" transform="rotate(0)"><tspan id="SvgjsTspan1071" dy="20" x="60"><tspan id="SvgjsTspan1072" style="text-decoration:;">Begin T</tspan></tspan></text></g></g><g id="SvgjsG1073" transform="translate(509.0124816894531,238.99999123811722)"><path id="SvgjsPath1074" d="M0 0L120 0L120 40L0 40Z " stroke="none" fill="none"></path><g id="SvgjsG1075"><text id="SvgjsText1076" font-family="微软雅黑" text-anchor="middle" font-size="16px" width="120px" fill="#323232" font-weight="400" align="middle" lineHeight="125%" font-style="" opacity="1" y="6" transform="rotate(0)"><tspan id="SvgjsTspan1077" dy="20" x="60"><tspan id="SvgjsTspan1078" style="text-decoration:;">Commit T</tspan></tspan></text></g></g><g id="SvgjsG1079" transform="translate(285.0124816894531,282.99999046325684)"><path id="SvgjsPath1080" d="M0 0L296 0L296 24.176470588235304L0 24.176470588235304Z " stroke="rgba(183,28,28,1)" stroke-width="2" fill-opacity="1" fill="#ffffff"></path><g id="SvgjsG1081"><text id="SvgjsText1082" font-family="微软雅黑" text-anchor="middle" font-size="16px" width="276px" fill="#323232" font-weight="400" align="middle" lineHeight="125%" font-style="" opacity="1" y="-1.911764705882348" transform="rotate(0)"><tspan id="SvgjsTspan1083" dy="20" x="148"><tspan id="SvgjsTspan1084" style="text-decoration:;">X Lock (write)</tspan></tspan></text></g></g><g id="SvgjsG1085" transform="translate(187.01248168945312,307.17646105149214)"><path id="SvgjsPath1086" d="M0 0L296 0L296 24.000001549720764L0 24.000001549720764Z " stroke="rgba(0,0,255,1)" stroke-width="2" fill-opacity="1" fill="#ffffff"></path><g id="SvgjsG1087"><text id="SvgjsText1088" font-family="微软雅黑" text-anchor="middle" font-size="16px" width="276px" fill="#323232" font-weight="400" align="middle" lineHeight="125%" font-style="" opacity="1" y="-1.999999225139618" transform="rotate(0)"><tspan id="SvgjsTspan1089" dy="20" x="148"><tspan id="SvgjsTspan1090" style="text-decoration:;">S Lock (read)</tspan></tspan></text></g></g><g id="SvgjsG1091"><path id="SvgjsPath1092" d="M113.01248168945312 413.99999046325684L362.5124816894531 413.99999046325684L362.5124816894531 413.99999046325684L612.0124816894531 413.99999046325684 " stroke="#323232" stroke-width="2" fill="none" marker-end="url(#SvgjsMarker1093)"></path></g><g id="SvgjsG1095"><path id="SvgjsPath1096" d="M141.01248168945312 386.99999046325684L141.01248168945312 398.99999046325684L141.01248168945312 398.99999046325684L141.01248168945312 411.99999046325684 " stroke="#323232" stroke-width="2" fill="none"></path></g><g id="SvgjsG1097"><path id="SvgjsPath1098" d="M578.0124816894531 390.99999046325684L578.0124816894531 402.49999046325684L578.0124816894531 402.49999046325684L578.0124816894531 413.99999046325684 " stroke="#323232" stroke-width="2" fill="none"></path></g><g id="SvgjsG1099" transform="translate(81.01248168945312,345.99999046325684)"><path id="SvgjsPath1100" d="M0 0L120 0L120 40L0 40Z " stroke="none" fill="none"></path><g id="SvgjsG1101"><text id="SvgjsText1102" font-family="微软雅黑" text-anchor="middle" font-size="16px" width="120px" fill="#323232" font-weight="400" align="middle" lineHeight="125%" font-style="" opacity="1" y="6" transform="rotate(0)"><tspan id="SvgjsTspan1103" dy="20" x="60"><tspan id="SvgjsTspan1104" style="text-decoration:;">Begin T</tspan></tspan></text></g></g><g id="SvgjsG1105" transform="translate(509.0124816894531,345.99999046325684)"><path id="SvgjsPath1106" d="M0 0L120 0L120 40L0 40Z " stroke="none" fill="none"></path><g id="SvgjsG1107"><text id="SvgjsText1108" font-family="微软雅黑" text-anchor="middle" font-size="16px" width="120px" fill="#323232" font-weight="400" align="middle" lineHeight="125%" font-style="" opacity="1" y="6" transform="rotate(0)"><tspan id="SvgjsTspan1109" dy="20" x="60"><tspan id="SvgjsTspan1110" style="text-decoration:;">Commit T</tspan></tspan></text></g></g><g id="SvgjsG1111" transform="translate(285.0124816894531,389.99999046325684)"><path id="SvgjsPath1112" d="M0 0L296 0L296 24.000001549720764L0 24.000001549720764Z " stroke="rgba(183,28,28,1)" stroke-width="2" fill-opacity="1" fill="#ffffff"></path><g id="SvgjsG1113"><text id="SvgjsText1114" font-family="微软雅黑" text-anchor="middle" font-size="16px" width="276px" fill="#323232" font-weight="400" align="middle" lineHeight="125%" font-style="" opacity="1" y="-1.999999225139618" transform="rotate(0)"><tspan id="SvgjsTspan1115" dy="20" x="148"><tspan id="SvgjsTspan1116" style="text-decoration:;">X Lock (write)</tspan></tspan></text></g></g><g id="SvgjsG1117" transform="translate(187.01248168945312,414.1764610514921)"><path id="SvgjsPath1118" d="M0 0L394 0L394 24L0 24Z " stroke="rgba(0,0,255,1)" stroke-width="2" fill-opacity="1" fill="#ffffff"></path><g id="SvgjsG1119"><text id="SvgjsText1120" font-family="微软雅黑" text-anchor="middle" font-size="16px" width="374px" fill="#323232" font-weight="400" align="middle" lineHeight="125%" font-style="" opacity="1" y="-2" transform="rotate(0)"><tspan id="SvgjsTspan1121" dy="20" x="197"><tspan id="SvgjsTspan1122" style="text-decoration:;">S Lock (read)</tspan></tspan></text></g></g><g id="SvgjsG1123" transform="translate(25.012481689453125,60.39999508857727)"><path id="SvgjsPath1124" d="M0 0L62 0L62 32.59999692440033L0 32.59999692440033Z " stroke="none" fill="none"></path><g id="SvgjsG1125"><text id="SvgjsText1126" font-family="微软雅黑" text-anchor="middle" font-size="16px" width="62px" fill="#323232" font-weight="700" align="middle" lineHeight="125%" font-style="" opacity="1" y="2.299998462200165" transform="rotate(0)"><tspan id="SvgjsTspan1127" dy="20" x="31"><tspan id="SvgjsTspan1128" style="text-decoration:;">0-LP</tspan></tspan></text></g></g><g id="SvgjsG1129" transform="translate(25.012481689453125,167.39999508857727)"><path id="SvgjsPath1130" d="M0 0L62 0L62 32.59999692440033L0 32.59999692440033Z " stroke="none" fill="none"></path><g id="SvgjsG1131"><text id="SvgjsText1132" font-family="微软雅黑" text-anchor="middle" font-size="16px" width="62px" fill="#323232" font-weight="700" align="middle" lineHeight="125%" font-style="" opacity="1" y="2.299998462200165" transform="rotate(0)"><tspan id="SvgjsTspan1133" dy="20" x="31"><tspan id="SvgjsTspan1134" style="text-decoration:;">1-LP</tspan></tspan></text></g></g><g id="SvgjsG1135" transform="translate(25.012481689453125,274.5764641270918)"><path id="SvgjsPath1136" d="M0 0L62 0L62 32.59999692440033L0 32.59999692440033Z " stroke="none" fill="none"></path><g id="SvgjsG1137"><text id="SvgjsText1138" font-family="微软雅黑" text-anchor="middle" font-size="16px" width="62px" fill="#323232" font-weight="700" align="middle" lineHeight="125%" font-style="" opacity="1" y="2.299998462200165" transform="rotate(0)"><tspan id="SvgjsTspan1139" dy="20" x="31"><tspan id="SvgjsTspan1140" style="text-decoration:;">2-LP</tspan></tspan></text></g></g><g id="SvgjsG1141" transform="translate(25.012481689453125,381.57646412709175)"><path id="SvgjsPath1142" d="M0 0L62 0L62 32.59999692440033L0 32.59999692440033Z " stroke="none" fill="none"></path><g id="SvgjsG1143"><text id="SvgjsText1144" font-family="微软雅黑" text-anchor="middle" font-size="16px" width="62px" fill="#323232" font-weight="700" align="middle" lineHeight="125%" font-style="" opacity="1" y="2.299998462200165" transform="rotate(0)"><tspan id="SvgjsTspan1145" dy="20" x="31"><tspan id="SvgjsTspan1146" style="text-decoration:;">3-LP</tspan></tspan></text></g></g></svg>