<?xml version="1.0" standalone="no"?><?xml-stylesheet type="text/css" href="https://www.processon.com/themes/default/mind/icons/icons.css" ?><!DOCTYPE svg PUBLIC "-//W3C//DTD SVG 1.1//EN" "http://www.w3.org/Graphics/SVG/1.1/DTD/svg11.dtd"><svg id="SvgjsSvg1000" xmlns="http://www.w3.org/2000/svg" version="1.1" xmlns:xlink="http://www.w3.org/1999/xlink" xmlns:svgjs="http://svgjs.com/svgjs" width="525" height="421"><rect fill="url(#pattern_mark)" transform="translate(-174.59999084472656,-43.599998474121094)" width="1050" height="1500" id="rect_mark" pointer-events="none"></rect><defs id="SvgjsDefs1001"><marker id="SvgjsMarker1038" markerWidth="14" markerHeight="10" refX="10" refY="5" viewBox="0 0 14 10" orient="auto" markerUnits="userSpaceOnUse" stroke-dasharray="0,0"><path id="SvgjsPath1039" d="M0 0L14 5L0 10L0 0 " fill="#b71c1c" stroke="#b71c1c" stroke-width="1"></path></marker><marker id="SvgjsMarker1046" markerWidth="14" markerHeight="10" refX="10" refY="5" viewBox="0 0 14 10" orient="auto" markerUnits="userSpaceOnUse" stroke-dasharray="0,0"><path id="SvgjsPath1047" d="M0 0L14 5L0 10L0 0 " fill="#0000ff" stroke="#0000ff" stroke-width="1"></path></marker><marker id="SvgjsMarker1092" markerWidth="14" markerHeight="10" refX="10" refY="5" viewBox="0 0 14 10" orient="auto" markerUnits="userSpaceOnUse" stroke-dasharray="0,0"><path id="SvgjsPath1093" d="M0 0L14 5L0 10L0 0 " fill="#0000ff" stroke="#0000ff" stroke-width="1"></path></marker><marker id="SvgjsMarker1108" markerWidth="14" markerHeight="10" refX="10" refY="5" viewBox="0 0 14 10" orient="auto" markerUnits="userSpaceOnUse" stroke-dasharray="0,0"><path id="SvgjsPath1109" d="M0 0L14 5L0 10L0 0 " fill="#b71c1c" stroke="#b71c1c" stroke-width="1"></path></marker><marker id="SvgjsMarker1116" markerWidth="14" markerHeight="10" refX="10" refY="5" viewBox="0 0 14 10" orient="auto" markerUnits="userSpaceOnUse" stroke-dasharray="0,0"><path id="SvgjsPath1117" d="M0 0L14 5L0 10L0 0 " fill="#b71c1c" stroke="#b71c1c" stroke-width="1"></path></marker><pattern patternUnits="userSpaceOnUse" id="pattern_mark" width="300" height="300"><text x="-50" y="150" fill="rgba(229,229,229,0.8)" font-size="18" transform="rotate(-45, 150, 150)"></text></pattern></defs><g id="SvgjsG1007" transform="translate(25,72)"><path id="SvgjsPath1008" d="M0 0L471 0L471 49L0 49Z " stroke="none" fill="none"></path><g id="SvgjsG1009"><text id="SvgjsText1010" font-family="微软雅黑" text-anchor="middle" font-size="16px" width="471px" fill="#000000" font-weight="400" align="middle" lineHeight="125%" font-style="" opacity="1" y="10.5" transform="rotate(0)"><tspan id="SvgjsTspan1011" dy="20" x="235.5"><tspan id="SvgjsTspan1012" style="text-decoration:;">r2(A); r1(B); </tspan><tspan id="SvgjsTspan1013" style="text-decoration:;font-weight: bold;fill: rgb(0, 0, 255);">w2(A); r3(A); </tspan><tspan id="SvgjsTspan1014" style="text-decoration:;fill: rgb(183, 28, 28);font-weight: bold;">w1(B); </tspan><tspan id="SvgjsTspan1015" style="text-decoration:;">w3(A); </tspan><tspan id="SvgjsTspan1016" style="text-decoration:;fill: rgb(183, 28, 28);font-weight: bold;">r2(B); </tspan><tspan id="SvgjsTspan1017" style="text-decoration:;">w2(B);</tspan></tspan></text></g></g><g id="SvgjsG1018" transform="translate(117,140)"><path id="SvgjsPath1019" d="M0 14C0 -4.666666666666667 28 -4.666666666666667 28 14C28 32.666666666666664 0 32.666666666666664 0 14Z " stroke="rgba(50,50,50,1)" stroke-width="2" fill-opacity="1" fill="#ffffff"></path><g id="SvgjsG1020"><text id="SvgjsText1021" font-family="微软雅黑" text-anchor="middle" font-size="16px" width="8px" fill="#323232" font-weight="400" align="middle" lineHeight="125%" font-style="" opacity="1" y="0" transform="rotate(0)"><tspan id="SvgjsTspan1022" dy="20" x="14"><tspan id="SvgjsTspan1023" style="text-decoration:;">1</tspan></tspan></text></g></g><g id="SvgjsG1024" transform="translate(254.5,140)"><path id="SvgjsPath1025" d="M0 14C0 -4.666666666666667 28 -4.666666666666667 28 14C28 32.666666666666664 0 32.666666666666664 0 14Z " stroke="rgba(50,50,50,1)" stroke-width="2" fill-opacity="1" fill="#ffffff"></path><g id="SvgjsG1026"><text id="SvgjsText1027" font-family="微软雅黑" text-anchor="middle" font-size="16px" width="8px" fill="#323232" font-weight="400" align="middle" lineHeight="125%" font-style="" opacity="1" y="0" transform="rotate(0)"><tspan id="SvgjsTspan1028" dy="20" x="14"><tspan id="SvgjsTspan1029" style="text-decoration:;">2</tspan></tspan></text></g></g><g id="SvgjsG1030" transform="translate(392,140)"><path id="SvgjsPath1031" d="M0 14C0 -4.666666666666667 28 -4.666666666666667 28 14C28 32.666666666666664 0 32.666666666666664 0 14Z " stroke="rgba(50,50,50,1)" stroke-width="2" fill-opacity="1" fill="#ffffff"></path><g id="SvgjsG1032"><text id="SvgjsText1033" font-family="微软雅黑" text-anchor="middle" font-size="16px" width="8px" fill="#323232" font-weight="400" align="middle" lineHeight="125%" font-style="" opacity="1" y="0" transform="rotate(0)"><tspan id="SvgjsTspan1034" dy="20" x="14"><tspan id="SvgjsTspan1035" style="text-decoration:;">3</tspan></tspan></text></g></g><g id="SvgjsG1036"><path id="SvgjsPath1037" d="M146 154L199.75 154L199.75 154L250.89999999999998 154 " stroke="#b71c1c" stroke-width="2" fill="none" marker-end="url(#SvgjsMarker1038)"></path><rect id="SvgjsRect1040" width="10" height="20" x="193.45" y="144" fill="#ffffff"></rect><text id="SvgjsText1041" font-family="微软雅黑" text-anchor="middle" font-size="16px" width="10px" fill="#323232" font-weight="400" align="top" lineHeight="20px" font-style="" opacity="1" y="140" transform="rotate(0)"><tspan id="SvgjsTspan1042" dy="20" x="198.45"><tspan id="SvgjsTspan1043" style="text-decoration:;">B</tspan></tspan></text></g><g id="SvgjsG1044"><path id="SvgjsPath1045" d="M283.5 154L337.25 154L337.25 154L388.4 154 " stroke="#0000ff" stroke-width="2" fill="none" marker-end="url(#SvgjsMarker1046)"></path><rect id="SvgjsRect1048" width="11" height="20" x="330.45" y="144" fill="#ffffff"></rect><text id="SvgjsText1049" font-family="微软雅黑" text-anchor="middle" font-size="16px" width="11px" fill="#323232" font-weight="400" align="top" lineHeight="20px" font-style="" opacity="1" y="140" transform="rotate(0)"><tspan id="SvgjsTspan1050" dy="20" x="335.95"><tspan id="SvgjsTspan1051" style="text-decoration:;">A</tspan></tspan></text></g><g id="SvgjsG1052" transform="translate(195.75,25.00000762939453)"><path id="SvgjsPath1053" d="M0 0L146.5 0L162.5 16L162.5 31.99999237060547L0 31.99999237060547L0 0Z " stroke="none" fill-opacity="1" fill="#ffffaa"></path><path id="SvgjsPath1054" d="M146.5 0L146.5 16L162.5 16Z " stroke="none" fill-opacity="1" fill="#cdcdcd"></path><path id="SvgjsPath1055" d="M0 0L146.5 0L162.5 16L162.5 31.99999237060547L0 31.99999237060547L0 0Z " stroke="none" fill="none"></path><g id="SvgjsG1056"><text id="SvgjsText1057" font-family="微软雅黑" text-anchor="middle" font-size="13px" width="143px" fill="#323232" font-weight="400" align="middle" lineHeight="125%" font-style="" opacity="1" y="5.374996185302734" transform="rotate(0)"><tspan id="SvgjsTspan1058" dy="16" x="81.5"><tspan id="SvgjsTspan1059" style="text-decoration:;">冲突可串行化调度</tspan></tspan></text></g></g><g id="SvgjsG1060" transform="translate(29,269)"><path id="SvgjsPath1061" d="M0 0L471 0L471 49L0 49Z " stroke="none" fill="none"></path><g id="SvgjsG1062"><text id="SvgjsText1063" font-family="微软雅黑" text-anchor="middle" font-size="16px" width="471px" fill="#000000" font-weight="400" align="middle" lineHeight="125%" font-style="" opacity="1" y="10.5" transform="rotate(0)"><tspan id="SvgjsTspan1064" dy="20" x="235.5"><tspan id="SvgjsTspan1065" style="text-decoration:;">r2(A); r1(B); </tspan><tspan id="SvgjsTspan1066" style="text-decoration:;font-weight: bold;fill: rgb(0, 0, 255);">w2(A); </tspan><tspan id="SvgjsTspan1067" style="text-decoration:;font-weight: bold;fill: rgb(183, 28, 28);">r2(B); </tspan><tspan id="SvgjsTspan1068" style="text-decoration:;font-weight: bold;fill: rgb(0, 0, 255);">r3(A); </tspan><tspan id="SvgjsTspan1069" style="text-decoration:;font-weight: bold;fill: rgb(183, 28, 28);">w1(B); </tspan><tspan id="SvgjsTspan1070" style="text-decoration:;">w3(A); </tspan><tspan id="SvgjsTspan1071" style="text-decoration:;font-weight: bold;fill: rgb(183, 28, 28);">w2(B);</tspan></tspan></text></g></g><g id="SvgjsG1072" transform="translate(121,337)"><path id="SvgjsPath1073" d="M0 14C0 -4.666666666666667 28 -4.666666666666667 28 14C28 32.666666666666664 0 32.666666666666664 0 14Z " stroke="rgba(50,50,50,1)" stroke-width="2" fill-opacity="1" fill="#ffffff"></path><g id="SvgjsG1074"><text id="SvgjsText1075" font-family="微软雅黑" text-anchor="middle" font-size="16px" width="8px" fill="#323232" font-weight="400" align="middle" lineHeight="125%" font-style="" opacity="1" y="0" transform="rotate(0)"><tspan id="SvgjsTspan1076" dy="20" x="14"><tspan id="SvgjsTspan1077" style="text-decoration:;">1</tspan></tspan></text></g></g><g id="SvgjsG1078" transform="translate(258.5,337)"><path id="SvgjsPath1079" d="M0 14C0 -4.666666666666667 28 -4.666666666666667 28 14C28 32.666666666666664 0 32.666666666666664 0 14Z " stroke="rgba(50,50,50,1)" stroke-width="2" fill-opacity="1" fill="#ffffff"></path><g id="SvgjsG1080"><text id="SvgjsText1081" font-family="微软雅黑" text-anchor="middle" font-size="16px" width="8px" fill="#323232" font-weight="400" align="middle" lineHeight="125%" font-style="" opacity="1" y="0" transform="rotate(0)"><tspan id="SvgjsTspan1082" dy="20" x="14"><tspan id="SvgjsTspan1083" style="text-decoration:;">2</tspan></tspan></text></g></g><g id="SvgjsG1084" transform="translate(396,337)"><path id="SvgjsPath1085" d="M0 14C0 -4.666666666666667 28 -4.666666666666667 28 14C28 32.666666666666664 0 32.666666666666664 0 14Z " stroke="rgba(50,50,50,1)" stroke-width="2" fill-opacity="1" fill="#ffffff"></path><g id="SvgjsG1086"><text id="SvgjsText1087" font-family="微软雅黑" text-anchor="middle" font-size="16px" width="8px" fill="#323232" font-weight="400" align="middle" lineHeight="125%" font-style="" opacity="1" y="0" transform="rotate(0)"><tspan id="SvgjsTspan1088" dy="20" x="14"><tspan id="SvgjsTspan1089" style="text-decoration:;">3</tspan></tspan></text></g></g><g id="SvgjsG1090"><path id="SvgjsPath1091" d="M287.5 351L341.25 351L341.25 351L392.4 351 " stroke="#0000ff" stroke-width="2" fill="none" marker-end="url(#SvgjsMarker1092)"></path><rect id="SvgjsRect1094" width="11" height="20" x="334.45" y="341" fill="#ffffff"></rect><text id="SvgjsText1095" font-family="微软雅黑" text-anchor="middle" font-size="16px" width="11px" fill="#323232" font-weight="400" align="top" lineHeight="20px" font-style="" opacity="1" y="337" transform="rotate(0)"><tspan id="SvgjsTspan1096" dy="20" x="339.95"><tspan id="SvgjsTspan1097" style="text-decoration:;">A</tspan></tspan></text></g><g id="SvgjsG1098" transform="translate(196.25,220.00000762939453)"><path id="SvgjsPath1099" d="M0 0L145.5 0L161.5 16L161.5 29.99999237060547L0 29.99999237060547L0 0Z " stroke="none" fill-opacity="1" fill="#ffffaa"></path><path id="SvgjsPath1100" d="M145.5 0L145.5 16L161.5 16Z " stroke="none" fill-opacity="1" fill="#cdcdcd"></path><path id="SvgjsPath1101" d="M0 0L145.5 0L161.5 16L161.5 29.99999237060547L0 29.99999237060547L0 0Z " stroke="none" fill="none"></path><g id="SvgjsG1102"><text id="SvgjsText1103" font-family="微软雅黑" text-anchor="middle" font-size="13px" width="142px" fill="#323232" font-weight="400" align="middle" lineHeight="125%" font-style="" opacity="1" y="4.374996185302734" transform="rotate(0)"><tspan id="SvgjsTspan1104" dy="16" x="81"><tspan id="SvgjsTspan1105" style="text-decoration:;">非冲突可串行化调度</tspan></tspan></text></g></g><g id="SvgjsG1106"><path id="SvgjsPath1107" d="M257.5 351L203.75 351L203.75 351L152.60000000000002 351 " stroke="#b71c1c" stroke-width="2" fill="none" marker-end="url(#SvgjsMarker1108)"></path><rect id="SvgjsRect1110" width="10" height="20" x="200.05" y="341" fill="#ffffff"></rect><text id="SvgjsText1111" font-family="微软雅黑" text-anchor="middle" font-size="16px" width="10px" fill="#323232" font-weight="400" align="top" lineHeight="20px" font-style="" opacity="1" y="337" transform="rotate(0)"><tspan id="SvgjsTspan1112" dy="20" x="205.05"><tspan id="SvgjsTspan1113" style="text-decoration:;">B</tspan></tspan></text></g><g id="SvgjsG1114"><path id="SvgjsPath1115" d="M135 366L135 395L272.5 395L272.5 368.6 " stroke="#b71c1c" stroke-width="2" fill="none" marker-end="url(#SvgjsMarker1116)"></path><rect id="SvgjsRect1118" width="10" height="20" x="197.45" y="385" fill="#ffffff"></rect><text id="SvgjsText1119" font-family="微软雅黑" text-anchor="middle" font-size="16px" width="10px" fill="#323232" font-weight="400" align="top" lineHeight="20px" font-style="" opacity="1" y="381" transform="rotate(0)"><tspan id="SvgjsTspan1120" dy="20" x="202.45"><tspan id="SvgjsTspan1121" style="text-decoration:;">B</tspan></tspan></text></g></svg>