<?xml version="1.0" standalone="no"?><?xml-stylesheet type="text/css" href="https://www.processon.com/themes/default/mind/icons/icons.css" ?><!DOCTYPE svg PUBLIC "-//W3C//DTD SVG 1.1//EN" "http://www.w3.org/Graphics/SVG/1.1/DTD/svg11.dtd"><svg id="SvgjsSvg1177" xmlns="http://www.w3.org/2000/svg" version="1.1" xmlns:xlink="http://www.w3.org/1999/xlink" xmlns:svgjs="http://svgjs.com/svgjs" width="272" height="462.5"><rect fill="url(#pattern_mark)" transform="translate(-385.59999084472656,-70.59999084472656)" width="1050" height="1500" id="rect_mark" pointer-events="none"></rect><defs id="SvgjsDefs1178"><marker id="SvgjsMarker1193" markerWidth="14" markerHeight="10" refX="10" refY="5" viewBox="0 0 14 10" orient="auto" markerUnits="userSpaceOnUse" stroke-dasharray="0,0"><path id="SvgjsPath1194" d="M0 0L14 5L0 10L0 0 " fill="#323232" stroke="#323232" stroke-width="1"></path></marker><marker id="SvgjsMarker1197" markerWidth="14" markerHeight="10" refX="10" refY="5" viewBox="0 0 14 10" orient="auto" markerUnits="userSpaceOnUse" stroke-dasharray="0,0"><path id="SvgjsPath1198" d="M0 0L14 5L0 10L0 0 " fill="#323232" stroke="#323232" stroke-width="1"></path></marker><marker id="SvgjsMarker1215" markerWidth="14" markerHeight="10" refX="10" refY="5" viewBox="0 0 14 10" orient="auto" markerUnits="userSpaceOnUse" stroke-dasharray="0,0"><path id="SvgjsPath1216" d="M0 0L14 5L0 10L0 0 " fill="#323232" stroke="#323232" stroke-width="1"></path></marker><marker id="SvgjsMarker1235" markerWidth="14" markerHeight="10" refX="10" refY="5" viewBox="0 0 14 10" orient="auto" markerUnits="userSpaceOnUse" stroke-dasharray="0,0"><path id="SvgjsPath1236" d="M0 0L14 5L0 10L0 0 " fill="#323232" stroke="#323232" stroke-width="1"></path></marker><marker id="SvgjsMarker1243" markerWidth="14" markerHeight="10" refX="10" refY="5" viewBox="0 0 14 10" orient="auto" markerUnits="userSpaceOnUse" stroke-dasharray="0,0"><path id="SvgjsPath1244" d="M0 0L14 5L0 10L0 0 " fill="#323232" stroke="#323232" stroke-width="1"></path></marker><marker id="SvgjsMarker1247" markerWidth="14" markerHeight="10" refX="10" refY="5" viewBox="0 0 14 10" orient="auto" markerUnits="userSpaceOnUse" stroke-dasharray="0,0"><path id="SvgjsPath1248" d="M0 0L14 5L0 10L0 0 " fill="#323232" stroke="#323232" stroke-width="1"></path></marker><marker id="SvgjsMarker1251" markerWidth="14" markerHeight="10" refX="10" refY="5" viewBox="0 0 14 10" orient="auto" markerUnits="userSpaceOnUse" stroke-dasharray="0,0"><path id="SvgjsPath1252" d="M0 0L14 5L0 10L0 0 " fill="#323232" stroke="#323232" stroke-width="1"></path></marker><pattern patternUnits="userSpaceOnUse" id="pattern_mark" width="300" height="300"><text x="-50" y="150" fill="rgba(229,229,229,0.8)" font-size="18" transform="rotate(-45, 150, 150)"></text></pattern></defs><g id="SvgjsG1179" transform="translate(61,74.00000762939453)"><path id="SvgjsPath1180" d="M0 4Q0 0 4 0L96 0Q100 0 100 4L100 36Q100 40 96 40L4 40Q0 40 0 36Z " stroke="rgba(50,50,50,1)" stroke-width="2" fill-opacity="1" fill="#ffffff"></path><g id="SvgjsG1181"><text id="SvgjsText1182" font-family="微软雅黑" text-anchor="middle" font-size="13px" width="80px" fill="#323232" font-weight="400" align="middle" lineHeight="125%" font-style="" opacity="1" y="9.375" transform="rotate(0)"><tspan id="SvgjsTspan1183" dy="16" x="50"><tspan id="SvgjsTspan1184" style="text-decoration:;">next 真实框</tspan></tspan></text></g></g><g id="SvgjsG1185" transform="translate(42.125,146.50000762939453)"><path id="SvgjsPath1186" d="M0 39.5L68.875 0L137.75 39.5L68.875 79Z " stroke="rgba(50,50,50,1)" stroke-width="2" fill-opacity="1" fill="#ffffff"></path><g id="SvgjsG1187"><text id="SvgjsText1188" font-family="微软雅黑" text-anchor="middle" font-size="13px" width="118px" fill="#323232" font-weight="400" align="middle" lineHeight="125%" font-style="" opacity="1" y="29.27" transform="rotate(0)"><tspan id="SvgjsTspan1189" dy="16" x="69"><tspan id="SvgjsTspan1190" style="text-decoration:;">被预测框覆盖？</tspan></tspan></text></g></g><g id="SvgjsG1191"><path id="SvgjsPath1192" d="M111 115.00000762939453L111 130.25000762939453L111 130.25000762939453L111 142.90000762939454 " stroke="#323232" stroke-width="2" fill="none" marker-end="url(#SvgjsMarker1193)"></path></g><g id="SvgjsG1195"><path id="SvgjsPath1196" d="M111 226.50000762939453L111 247.50000762939453L111 247.50000762939453L111 265.9000076293945 " stroke="#323232" stroke-width="2" fill="none" marker-end="url(#SvgjsMarker1197)"></path><rect id="SvgjsRect1199" width="13" height="16" x="104.5" y="238.20000762939452" fill="#ffffff"></rect><text id="SvgjsText1200" font-family="微软雅黑" text-anchor="middle" font-size="13px" width="13px" fill="#323232" font-weight="400" align="top" lineHeight="16px" font-style="" opacity="1" y="235.57500762939452" transform="rotate(0)"><tspan id="SvgjsTspan1201" dy="16" x="111"><tspan id="SvgjsTspan1202" style="text-decoration:;">是</tspan></tspan></text></g><g id="SvgjsG1203" transform="translate(42,269.50000762939453)"><path id="SvgjsPath1204" d="M0 42L69 0L138 42L69 84Z " stroke="rgba(50,50,50,1)" stroke-width="2" fill-opacity="1" fill="#ffffff"></path><g id="SvgjsG1205"><text id="SvgjsText1206" font-family="微软雅黑" text-anchor="middle" font-size="13px" width="118px" fill="#323232" font-weight="400" align="middle" lineHeight="125%" font-style="" opacity="1" y="15.795000000000002" transform="rotate(0)"><tspan id="SvgjsTspan1207" dy="16" x="69"><tspan id="SvgjsTspan1208" style="text-decoration:;">IoU &gt; </tspan></tspan><tspan id="SvgjsTspan1209" dy="16" x="69"><tspan id="SvgjsTspan1210" style="text-decoration:;">IoU_threshold</tspan></tspan><tspan id="SvgjsTspan1211" dy="16" x="69"><tspan id="SvgjsTspan1212" style="text-decoration:;">？</tspan></tspan></text></g></g><g id="SvgjsG1213"><path id="SvgjsPath1214" d="M111 354.50000762939453L111 375.50000762939453L111 375.50000762939453L111 393.9000076293945 " stroke="#323232" stroke-width="2" fill="none" marker-end="url(#SvgjsMarker1215)"></path><rect id="SvgjsRect1217" width="13" height="16" x="104.5" y="366.2000076293945" fill="#ffffff"></rect><text id="SvgjsText1218" font-family="微软雅黑" text-anchor="middle" font-size="13px" width="13px" fill="#323232" font-weight="400" align="top" lineHeight="16px" font-style="" opacity="1" y="363.5750076293945" transform="rotate(0)"><tspan id="SvgjsTspan1219" dy="16" x="111"><tspan id="SvgjsTspan1220" style="text-decoration:;">是</tspan></tspan></text></g><g id="SvgjsG1221" transform="translate(71,397.50000762939453)"><path id="SvgjsPath1222" d="M0 4Q0 0 4 0L76 0Q80 0 80 4L80 36Q80 40 76 40L4 40Q0 40 0 36Z " stroke="rgba(50,50,50,1)" stroke-width="2" fill-opacity="1" fill="#ffffff"></path><g id="SvgjsG1223"><text id="SvgjsText1224" font-family="微软雅黑" text-anchor="middle" font-size="13px" width="60px" fill="#323232" font-weight="400" align="middle" lineHeight="125%" font-style="" opacity="1" y="9.375" transform="rotate(0)"><tspan id="SvgjsTspan1225" dy="16" x="40"><tspan id="SvgjsTspan1226" style="text-decoration:;">TP + 1</tspan></tspan></text></g></g><g id="SvgjsG1227" transform="translate(172,225.50000762939453)"><path id="SvgjsPath1228" d="M0 4Q0 0 4 0L71 0Q75 0 75 4L75 36Q75 40 71 40L4 40Q0 40 0 36Z " stroke="rgba(50,50,50,1)" stroke-width="2" fill-opacity="1" fill="#ffffff"></path><g id="SvgjsG1229"><text id="SvgjsText1230" font-family="微软雅黑" text-anchor="middle" font-size="13px" width="55px" fill="#323232" font-weight="400" align="middle" lineHeight="125%" font-style="" opacity="1" y="9.375" transform="rotate(0)"><tspan id="SvgjsTspan1231" dy="16" x="37.5"><tspan id="SvgjsTspan1232" style="text-decoration:;">FP + 1</tspan></tspan></text></g></g><g id="SvgjsG1233"><path id="SvgjsPath1234" d="M181 311.50000762939453L209.5 311.50000762939453L209.5 269.10000762939455 " stroke="#323232" stroke-width="2" fill="none" marker-end="url(#SvgjsMarker1235)"></path><rect id="SvgjsRect1237" width="13" height="16" x="203" y="296.55000762939454" fill="#ffffff"></rect><text id="SvgjsText1238" font-family="微软雅黑" text-anchor="middle" font-size="13px" width="13px" fill="#323232" font-weight="400" align="top" lineHeight="16px" font-style="" opacity="1" y="293.92500762939454" transform="rotate(0)"><tspan id="SvgjsTspan1239" dy="16" x="209.5"><tspan id="SvgjsTspan1240" style="text-decoration:;">否</tspan></tspan></text></g><g id="SvgjsG1241"><path id="SvgjsPath1242" d="M70 417.50000762939453L25 417.50000762939453L25 94.00000762939453L57.39999999999998 94.00000762939453 " stroke="#323232" stroke-width="2" fill="none" marker-end="url(#SvgjsMarker1243)"></path></g><g id="SvgjsG1245"><path id="SvgjsPath1246" d="M209.5 224.50000762939453L209.5 94.00000762939453L164.60000000000002 94.00000762939453 " stroke="#323232" stroke-width="2" fill="none" marker-end="url(#SvgjsMarker1247)"></path></g><g id="SvgjsG1249"><path id="SvgjsPath1250" d="M111 25.00000762939453L111 49.50000762939453L111 49.50000762939453L111 70.40000762939454 " stroke="#323232" stroke-width="2" fill="none" marker-end="url(#SvgjsMarker1251)"></path></g></svg>