<?xml version="1.0" standalone="no"?><?xml-stylesheet type="text/css" href="https://www.processon.com/themes/default/mind/icons/icons.css" ?><!DOCTYPE svg PUBLIC "-//W3C//DTD SVG 1.1//EN" "http://www.w3.org/Graphics/SVG/1.1/DTD/svg11.dtd"><svg id="SvgjsSvg1000" xmlns="http://www.w3.org/2000/svg" version="1.1" xmlns:xlink="http://www.w3.org/1999/xlink" xmlns:svgjs="http://svgjs.com/svgjs" width="695.6875" height="597.5999984741211"><rect fill="url(#pattern_mark)" transform="translate(-167.59999084472656,-75.00000762939453)" width="1050" height="1500" id="rect_mark" pointer-events="none"></rect><defs id="SvgjsDefs1001"><marker id="SvgjsMarker1079" markerWidth="14" markerHeight="10" refX="10" refY="5" viewBox="0 0 14 10" orient="auto" markerUnits="userSpaceOnUse" stroke-dasharray="0,0"><path id="SvgjsPath1080" d="M0 0L14 5L0 10L0 0 " fill="#000000" stroke="#000000" stroke-width="1"></path></marker><marker id="SvgjsMarker1083" markerWidth="14" markerHeight="10" refX="10" refY="5" viewBox="0 0 14 10" orient="auto" markerUnits="userSpaceOnUse" stroke-dasharray="0,0"><path id="SvgjsPath1084" d="M0 0L14 5L0 10L0 0 " fill="#000000" stroke="#000000" stroke-width="1"></path></marker><marker id="SvgjsMarker1087" markerWidth="14" markerHeight="10" refX="10" refY="5" viewBox="0 0 14 10" orient="auto" markerUnits="userSpaceOnUse" stroke-dasharray="0,0"><path id="SvgjsPath1088" d="M0 0L14 5L0 10L0 0 " fill="#000000" stroke="#000000" stroke-width="1"></path></marker><marker id="SvgjsMarker1091" markerWidth="14" markerHeight="10" refX="10" refY="5" viewBox="0 0 14 10" orient="auto" markerUnits="userSpaceOnUse" stroke-dasharray="0,0"><path id="SvgjsPath1092" d="M0 0L14 5L0 10L0 0 " fill="#000000" stroke="#000000" stroke-width="1"></path></marker><marker id="SvgjsMarker1095" markerWidth="14" markerHeight="10" refX="10" refY="5" viewBox="0 0 14 10" orient="auto" markerUnits="userSpaceOnUse" stroke-dasharray="0,0"><path id="SvgjsPath1096" d="M0 0L14 5L0 10L0 0 " fill="#000000" stroke="#000000" stroke-width="1"></path></marker><marker id="SvgjsMarker1099" markerWidth="14" markerHeight="10" refX="10" refY="5" viewBox="0 0 14 10" orient="auto" markerUnits="userSpaceOnUse" stroke-dasharray="0,0"><path id="SvgjsPath1100" d="M0 0L14 5L0 10L0 0 " fill="#000000" stroke="#000000" stroke-width="1"></path></marker><marker id="SvgjsMarker1103" markerWidth="14" markerHeight="10" refX="10" refY="5" viewBox="0 0 14 10" orient="auto" markerUnits="userSpaceOnUse" stroke-dasharray="0,0"><path id="SvgjsPath1104" d="M0 0L14 5L0 10L0 0 " fill="#000000" stroke="#000000" stroke-width="1"></path></marker><marker id="SvgjsMarker1107" markerWidth="14" markerHeight="10" refX="10" refY="5" viewBox="0 0 14 10" orient="auto" markerUnits="userSpaceOnUse" stroke-dasharray="0,0"><path id="SvgjsPath1108" d="M0 0L14 5L0 10L0 0 " fill="#000000" stroke="#000000" stroke-width="1"></path></marker><marker id="SvgjsMarker1111" markerWidth="14" markerHeight="10" refX="10" refY="5" viewBox="0 0 14 10" orient="auto" markerUnits="userSpaceOnUse" stroke-dasharray="0,0"><path id="SvgjsPath1112" d="M0 0L14 5L0 10L0 0 " fill="#000000" stroke="#000000" stroke-width="1"></path></marker><marker id="SvgjsMarker1115" markerWidth="14" markerHeight="10" refX="10" refY="5" viewBox="0 0 14 10" orient="auto" markerUnits="userSpaceOnUse" stroke-dasharray="0,0"><path id="SvgjsPath1116" d="M0 0L14 5L0 10L0 0 " fill="#000000" stroke="#000000" stroke-width="1"></path></marker><marker id="SvgjsMarker1125" markerWidth="14" markerHeight="10" refX="10" refY="5" viewBox="0 0 14 10" orient="auto" markerUnits="userSpaceOnUse" stroke-dasharray="0,0"><path id="SvgjsPath1126" d="M0 0L14 5L0 10L0 0 " fill="#000000" stroke="#000000" stroke-width="1"></path></marker><marker id="SvgjsMarker1141" markerWidth="14" markerHeight="10" refX="10" refY="5" viewBox="0 0 14 10" orient="auto" markerUnits="userSpaceOnUse" stroke-dasharray="0,0"><path id="SvgjsPath1142" d="M0 0L14 5L0 10L0 0 " fill="#000000" stroke="#000000" stroke-width="1"></path></marker><marker id="SvgjsMarker1151" markerWidth="14" markerHeight="10" refX="10" refY="5" viewBox="0 0 14 10" orient="auto" markerUnits="userSpaceOnUse" stroke-dasharray="0,0"><path id="SvgjsPath1152" d="M0 0L14 5L0 10L0 0 " fill="#000000" stroke="#000000" stroke-width="1"></path></marker><marker id="SvgjsMarker1155" markerWidth="14" markerHeight="10" refX="10" refY="5" viewBox="0 0 14 10" orient="auto" markerUnits="userSpaceOnUse" stroke-dasharray="0,0"><path id="SvgjsPath1156" d="M0 0L14 5L0 10L0 0 " fill="#000000" stroke="#000000" stroke-width="1"></path></marker><pattern patternUnits="userSpaceOnUse" id="pattern_mark" width="300" height="300"><text x="-50" y="150" fill="rgba(229,229,229,0.8)" font-size="18" transform="rotate(-45, 150, 150)"></text></pattern></defs><g id="SvgjsG1007" transform="translate(25,94.79999208450317)"><path id="SvgjsPath1008" d="M0 4Q0 0 4 0L414 0Q418 0 418 4L418 329Q418 333 414 333L4 333Q0 333 0 329Z " stroke-dasharray="10,6" stroke="rgba(76,175,80,1)" stroke-width="2" fill-opacity="1" fill="#ffffff"></path><g id="SvgjsG1009"><text id="SvgjsText1010" font-family="微软雅黑" text-anchor="middle" font-size="15px" width="398px" fill="#323232" font-weight="400" align="middle" lineHeight="125%" font-style="" opacity="1" y="154.625" transform="rotate(0)"></text></g></g><g id="SvgjsG1011" transform="translate(182,24.999985694885254)"><path id="SvgjsPath1012" d="M0 23.5C0 -7.833333333333333 104 -7.833333333333333 104 23.5C104 54.833333333333336 0 54.833333333333336 0 23.5Z " stroke="rgba(50,50,50,1)" stroke-width="2" fill-opacity="1" fill="#ffeb3b"></path><g id="SvgjsG1013"><text id="SvgjsText1014" font-family="微软雅黑" text-anchor="middle" font-size="15px" width="84px" fill="#323232" font-weight="400" align="middle" lineHeight="125%" font-style="" opacity="1" y="11.625" transform="rotate(0)"><tspan id="SvgjsTspan1015" dy="18" x="52"><tspan id="SvgjsTspan1016" style="text-decoration:;">客户端</tspan></tspan></text></g></g><g id="SvgjsG1017" transform="translate(182,115.59999084472656)"><path id="SvgjsPath1018" d="M0 23.5C0 -7.833333333333333 104 -7.833333333333333 104 23.5C104 54.833333333333336 0 54.833333333333336 0 23.5Z " stroke="rgba(50,50,50,1)" stroke-width="2" fill-opacity="1" fill="#ffeb3b"></path><g id="SvgjsG1019"><text id="SvgjsText1020" font-family="微软雅黑" text-anchor="middle" font-size="15px" width="84px" fill="#323232" font-weight="400" align="middle" lineHeight="125%" font-style="" opacity="1" y="11.625" transform="rotate(0)"><tspan id="SvgjsTspan1021" dy="18" x="52"><tspan id="SvgjsTspan1022" style="text-decoration:;">连接器</tspan></tspan></text></g></g><g id="SvgjsG1023" transform="translate(71,191.59999084472656)"><path id="SvgjsPath1024" d="M0 23.5C0 -7.833333333333333 104 -7.833333333333333 104 23.5C104 54.833333333333336 0 54.833333333333336 0 23.5Z " stroke="rgba(50,50,50,1)" stroke-width="2" fill-opacity="1" fill="#ffeb3b"></path><g id="SvgjsG1025"><text id="SvgjsText1026" font-family="微软雅黑" text-anchor="middle" font-size="15px" width="84px" fill="#323232" font-weight="400" align="middle" lineHeight="125%" font-style="" opacity="1" y="11.625" transform="rotate(0)"><tspan id="SvgjsTspan1027" dy="18" x="52"><tspan id="SvgjsTspan1028" style="text-decoration:;">查询缓存</tspan></tspan></text></g></g><g id="SvgjsG1029" transform="translate(301,191.59999084472656)"><path id="SvgjsPath1030" d="M0 23.5C0 -7.833333333333333 104 -7.833333333333333 104 23.5C104 54.833333333333336 0 54.833333333333336 0 23.5Z " stroke="rgba(50,50,50,1)" stroke-width="2" fill-opacity="1" fill="#ffeb3b"></path><g id="SvgjsG1031"><text id="SvgjsText1032" font-family="微软雅黑" text-anchor="middle" font-size="15px" width="84px" fill="#323232" font-weight="400" align="middle" lineHeight="125%" font-style="" opacity="1" y="11.625" transform="rotate(0)"><tspan id="SvgjsTspan1033" dy="18" x="52"><tspan id="SvgjsTspan1034" style="text-decoration:;">分析器</tspan></tspan></text></g></g><g id="SvgjsG1035" transform="translate(301,272.0999927520752)"><path id="SvgjsPath1036" d="M0 23.5C0 -7.833333333333333 104 -7.833333333333333 104 23.5C104 54.833333333333336 0 54.833333333333336 0 23.5Z " stroke="rgba(50,50,50,1)" stroke-width="2" fill-opacity="1" fill="#ffeb3b"></path><g id="SvgjsG1037"><text id="SvgjsText1038" font-family="微软雅黑" text-anchor="middle" font-size="15px" width="84px" fill="#323232" font-weight="400" align="middle" lineHeight="125%" font-style="" opacity="1" y="11.625" transform="rotate(0)"><tspan id="SvgjsTspan1039" dy="18" x="52"><tspan id="SvgjsTspan1040" style="text-decoration:;">优化器</tspan></tspan></text></g></g><g id="SvgjsG1041" transform="translate(301,352.5999946594238)"><path id="SvgjsPath1042" d="M0 23.5C0 -7.833333333333333 104 -7.833333333333333 104 23.5C104 54.833333333333336 0 54.833333333333336 0 23.5Z " stroke="rgba(50,50,50,1)" stroke-width="2" fill-opacity="1" fill="#ffeb3b"></path><g id="SvgjsG1043"><text id="SvgjsText1044" font-family="微软雅黑" text-anchor="middle" font-size="15px" width="84px" fill="#323232" font-weight="400" align="middle" lineHeight="125%" font-style="" opacity="1" y="11.625" transform="rotate(0)"><tspan id="SvgjsTspan1045" dy="18" x="52"><tspan id="SvgjsTspan1046" style="text-decoration:;">执行器</tspan></tspan></text></g></g><g id="SvgjsG1047" transform="translate(78,355.5999946594238)"><path id="SvgjsPath1048" d="M0 0L86 0L102 16L102 41L0 41L0 0Z " stroke="none" fill-opacity="1" fill="#ffffaa"></path><path id="SvgjsPath1049" d="M86 0L86 16L102 16Z " stroke="none" fill-opacity="1" fill="#cdcdcd"></path><path id="SvgjsPath1050" d="M0 0L86 0L102 16L102 41L0 41L0 0Z " stroke="none" fill="none"></path><g id="SvgjsG1051"><text id="SvgjsText1052" font-family="微软雅黑" text-anchor="middle" font-size="15px" width="82px" fill="#323232" font-weight="400" align="middle" lineHeight="125%" font-style="" opacity="1" y="8.625" transform="rotate(0)"><tspan id="SvgjsTspan1053" dy="18" x="51"><tspan id="SvgjsTspan1054" style="text-decoration:;">Server 层</tspan></tspan></text></g></g><g id="SvgjsG1055" transform="translate(25,467.5999984741211)"><path id="SvgjsPath1056" d="M0 4Q0 0 4 0L414 0Q418 0 418 4L418 101Q418 105 414 105L4 105Q0 105 0 101Z " stroke-dasharray="10,6" stroke="rgba(76,175,80,1)" stroke-width="2" fill-opacity="1" fill="#ffffff"></path><g id="SvgjsG1057"><text id="SvgjsText1058" font-family="微软雅黑" text-anchor="middle" font-size="15px" width="398px" fill="#323232" font-weight="400" align="middle" lineHeight="125%" font-style="" opacity="1" y="40.625" transform="rotate(0)"></text></g></g><g id="SvgjsG1059" transform="translate(49,491.5999984741211)"><path id="SvgjsPath1060" d="M0 28.5C0 -9.5 108 -9.5 108 28.5C108 66.5 0 66.5 0 28.5Z " stroke="rgba(50,50,50,1)" stroke-width="2" fill-opacity="1" fill="#2196f3"></path><g id="SvgjsG1061"><text id="SvgjsText1062" font-family="微软雅黑" text-anchor="middle" font-size="15px" width="88px" fill="#323232" font-weight="400" align="middle" lineHeight="125%" font-style="" opacity="1" y="16.625" transform="rotate(0)"><tspan id="SvgjsTspan1063" dy="18" x="54"><tspan id="SvgjsTspan1064" style="text-decoration:;">存储引擎</tspan></tspan></text></g></g><g id="SvgjsG1065" transform="translate(180,491.5999984741211)"><path id="SvgjsPath1066" d="M0 28.5C0 -9.5 108 -9.5 108 28.5C108 66.5 0 66.5 0 28.5Z " stroke="rgba(50,50,50,1)" stroke-width="2" fill-opacity="1" fill="#2196f3"></path><g id="SvgjsG1067"><text id="SvgjsText1068" font-family="微软雅黑" text-anchor="middle" font-size="15px" width="88px" fill="#323232" font-weight="400" align="middle" lineHeight="125%" font-style="" opacity="1" y="16.625" transform="rotate(0)"><tspan id="SvgjsTspan1069" dy="18" x="54"><tspan id="SvgjsTspan1070" style="text-decoration:;">存储引擎</tspan></tspan></text></g></g><g id="SvgjsG1071" transform="translate(311,491.5999984741211)"><path id="SvgjsPath1072" d="M0 28.5C0 -9.5 108 -9.5 108 28.5C108 66.5 0 66.5 0 28.5Z " stroke="rgba(50,50,50,1)" stroke-width="2" fill-opacity="1" fill="#2196f3"></path><g id="SvgjsG1073"><text id="SvgjsText1074" font-family="微软雅黑" text-anchor="middle" font-size="15px" width="88px" fill="#323232" font-weight="400" align="middle" lineHeight="125%" font-style="" opacity="1" y="16.625" transform="rotate(0)"><tspan id="SvgjsTspan1075" dy="18" x="54"><tspan id="SvgjsTspan1076" style="text-decoration:;">存储引擎</tspan></tspan></text></g></g><g id="SvgjsG1077"><path id="SvgjsPath1078" d="M234 72.99998569488525L234 93.79998826980591L234 93.79998826980591L234 111.99999084472657 " stroke="#000000" stroke-width="2" fill="none" marker-end="url(#SvgjsMarker1079)"></path></g><g id="SvgjsG1081"><path id="SvgjsPath1082" d="M181 139.09999084472656L123 139.09999084472656L123 187.99999084472654 " stroke="#000000" stroke-width="2" fill="none" marker-end="url(#SvgjsMarker1083)"></path></g><g id="SvgjsG1085"><path id="SvgjsPath1086" d="M287 139.09999084472656L353 139.09999084472656L353 187.99999084472654 " stroke="#000000" stroke-width="2" fill="none" marker-end="url(#SvgjsMarker1087)"></path></g><g id="SvgjsG1089"><path id="SvgjsPath1090" d="M300 215.09999084472656L238 215.09999084472656L238 215.09999084472656L178.60000000000002 215.09999084472656 " stroke="#000000" stroke-width="2" fill="none" marker-end="url(#SvgjsMarker1091)"></path></g><g id="SvgjsG1093"><path id="SvgjsPath1094" d="M353 239.59999084472656L353 255.34999179840088L353 255.34999179840088L353 268.4999927520752 " stroke="#000000" stroke-width="2" fill="none" marker-end="url(#SvgjsMarker1095)"></path></g><g id="SvgjsG1097"><path id="SvgjsPath1098" d="M353 320.0999927520752L353 335.8499937057495L353 335.8499937057495L353 348.9999946594238 " stroke="#000000" stroke-width="2" fill="none" marker-end="url(#SvgjsMarker1099)"></path></g><g id="SvgjsG1101"><path id="SvgjsPath1102" d="M255.74118095489746 71.03405986859619L255.74118095489746 93.79423698617967L255.47905546699923 93.79423698617967L255.47905546699923 113.95441410376318 " stroke="#000000" stroke-width="2" fill="none" marker-end="url(#SvgjsMarker1103)"></path></g><g id="SvgjsG1105"><path id="SvgjsPath1106" d="M211.34729635533387 70.03037018886084L211.34729635533387 93.37719837344531L211.34729635533387 93.37719837344531L211.34729635533387 114.12402655802978 " stroke="#000000" stroke-width="2" fill="none" marker-end="url(#SvgjsMarker1107)"></path></g><g id="SvgjsG1109"><path id="SvgjsPath1110" d="M234 428.7999920845032L234 447.69999527931213L234 447.69999527931213L234 463.99999847412107 " stroke="#000000" stroke-width="2" fill="none" marker-end="url(#SvgjsMarker1111)"></path></g><g id="SvgjsG1113"><path id="SvgjsPath1114" d="M427.9999999999999 138.84999227523804L461.4999999999999 138.84999227523804L461.4999999999999 139.09999084472656L491.39999999999986 139.09999084472656 " stroke-dasharray="3,3" stroke="#000000" stroke-width="2" fill="none" marker-end="url(#SvgjsMarker1115)"></path></g><g id="SvgjsG1117" transform="translate(494.9999999999999,122.49999237060547)"><path id="SvgjsPath1118" d="M0 0L147 0L147 33.19999694824219L0 33.19999694824219Z " stroke="none" fill="none"></path><g id="SvgjsG1119"><text id="SvgjsText1120" font-family="微软雅黑" text-anchor="middle" font-size="15px" width="147px" fill="#323232" font-weight="400" align="middle" lineHeight="125%" font-style="" opacity="1" y="4.724998474121094" transform="rotate(0)"><tspan id="SvgjsTspan1121" dy="18" x="73.5"><tspan id="SvgjsTspan1122" style="text-decoration:;">管理连接，验证权限</tspan></tspan></text></g></g><g id="SvgjsG1123"><path id="SvgjsPath1124" d="M427.9999999999999 214.84999227523804L461.4999999999999 214.84999227523804L461.4999999999999 215.09999084472656L491.39999999999986 215.09999084472656 " stroke-dasharray="3,3" stroke="#000000" stroke-width="2" fill="none" marker-end="url(#SvgjsMarker1125)"></path></g><g id="SvgjsG1127" transform="translate(494.9999999999999,198.49999237060547)"><path id="SvgjsPath1128" d="M0 0L147 0L147 33.19999694824219L0 33.19999694824219Z " stroke="none" fill="none"></path><g id="SvgjsG1129"><text id="SvgjsText1130" font-family="微软雅黑" text-anchor="middle" font-size="15px" width="147px" fill="#323232" font-weight="400" align="middle" lineHeight="125%" font-style="" opacity="1" y="4.724998474121094" transform="rotate(0)"><tspan id="SvgjsTspan1131" dy="18" x="73.5"><tspan id="SvgjsTspan1132" style="text-decoration:;">词法分析，语法分析</tspan></tspan></text></g></g><g id="SvgjsG1133" transform="translate(494.9999999999998,278.9999942779541)"><path id="SvgjsPath1134" d="M0 0L175.2888912624785 0L175.2888912624785 33.19999694824219L0 33.19999694824219Z " stroke="none" fill="none"></path><g id="SvgjsG1135"><text id="SvgjsText1136" font-family="微软雅黑" text-anchor="middle" font-size="15px" width="176px" fill="#323232" font-weight="400" align="middle" lineHeight="125%" font-style="" opacity="1" y="4.724998474121094" transform="rotate(0)"><tspan id="SvgjsTspan1137" dy="18" x="88"><tspan id="SvgjsTspan1138" style="text-decoration:;">生成执行计划，选择索引</tspan></tspan></text></g></g><g id="SvgjsG1139"><path id="SvgjsPath1140" d="M428 375.8499960899353L461.5 375.8499960899353L461.5 376.0999946594238L491.4 376.0999946594238 " stroke-dasharray="3,3" stroke="#000000" stroke-width="2" fill="none" marker-end="url(#SvgjsMarker1141)"></path></g><g id="SvgjsG1143" transform="translate(495,359.49999618530273)"><path id="SvgjsPath1144" d="M0 0L147 0L147 33.19999694824219L0 33.19999694824219Z " stroke="none" fill="none"></path><g id="SvgjsG1145"><text id="SvgjsText1146" font-family="微软雅黑" text-anchor="middle" font-size="15px" width="147px" fill="#323232" font-weight="400" align="middle" lineHeight="125%" font-style="" opacity="1" y="4.724998474121094" transform="rotate(0)"><tspan id="SvgjsTspan1147" dy="18" x="73.5"><tspan id="SvgjsTspan1148" style="text-decoration:;">操作引擎，返回结果</tspan></tspan></text></g></g><g id="SvgjsG1149"><path id="SvgjsPath1150" d="M425.7777777777783 295.5999927520752L460.388888888889 295.5999927520752L460.388888888889 295.5999927520752L491.39999999999975 295.5999927520752 " stroke-dasharray="3,3" stroke="#000000" stroke-width="2" fill="none" marker-end="url(#SvgjsMarker1151)"></path></g><g id="SvgjsG1153"><path id="SvgjsPath1154" d="M428.0000000000002 519.8499999046327L457.8444502088761 519.8499999046327L457.8444502088761 520.0999984741212L484.0889004177519 520.0999984741212 " stroke-dasharray="3,3" stroke="#000000" stroke-width="2" fill="none" marker-end="url(#SvgjsMarker1155)"></path></g><g id="SvgjsG1157" transform="translate(487.68890041775194,503.5)"><path id="SvgjsPath1158" d="M0 0L182.59999084472634 0L182.59999084472634 33.19999694824219L0 33.19999694824219Z " stroke="none" fill="none"></path><g id="SvgjsG1159"><text id="SvgjsText1160" font-family="微软雅黑" text-anchor="middle" font-size="15px" width="183px" fill="#323232" font-weight="400" align="middle" lineHeight="125%" font-style="" opacity="1" y="4.724998474121094" transform="rotate(0)"><tspan id="SvgjsTspan1161" dy="18" x="91.5"><tspan id="SvgjsTspan1162" style="text-decoration:;">存储数据，提供读写接口</tspan></tspan></text></g></g></svg>