<?xml version="1.0" standalone="no"?><?xml-stylesheet type="text/css" href="https://www.processon.com/themes/default/mind/icons/icons.css" ?><!DOCTYPE svg PUBLIC "-//W3C//DTD SVG 1.1//EN" "http://www.w3.org/Graphics/SVG/1.1/DTD/svg11.dtd"><svg id="SvgjsSvg1000" xmlns="http://www.w3.org/2000/svg" version="1.1" xmlns:xlink="http://www.w3.org/1999/xlink" xmlns:svgjs="http://svgjs.com/svgjs" width="915.3249969482422" height="295.0375213623047"><rect fill="url(#pattern_mark)" transform="translate(-37.025001525878906,-280.1124954223633)" width="1050" height="1500" id="rect_mark" pointer-events="none"></rect><defs id="SvgjsDefs1001"><pattern patternUnits="userSpaceOnUse" id="pattern_mark" width="300" height="300"><text x="-50" y="150" fill="rgba(229,229,229,0.8)" font-size="18" transform="rotate(-45, 150, 150)"></text></pattern></defs><g id="SvgjsG1007" transform="translate(125.86070360456199,25.005152534036085)"><path id="SvgjsPath1008" d="M0 0L658.1848739495797 0L658.1848739495797 243.09121224423183L0 243.09121224423183Z " stroke="rgba(50,50,50,1)" stroke-width="2" fill-opacity="1" fill="#bbdefb"></path><g id="SvgjsG1009"><text id="SvgjsText1010" font-family="微软雅黑" text-anchor="middle" font-size="16px" width="639px" fill="#323232" font-weight="400" align="middle" lineHeight="125%" font-style="" opacity="1" y="107.54560612211591" transform="rotate(0)"></text></g></g><g id="SvgjsG1011" transform="translate(125.28927503313358,229.04594461019963)"><path id="SvgjsPath1012" d="M0 0L658.7563025210083 0L658.7563025210083 40.714285714285666L0 40.714285714285666Z " stroke="rgba(0,0,0,1)" stroke-width="2" fill-opacity="1" fill="#e0e0e0"></path><g id="SvgjsG1013"><text id="SvgjsText1014" font-family="微软雅黑" text-anchor="middle" font-size="16px" width="639px" fill="#323232" font-weight="400" align="middle" lineHeight="125%" font-style="" opacity="1" y="6.357142857142833" transform="rotate(0)"><tspan id="SvgjsTspan1015" dy="20" x="329.5"><tspan id="SvgjsTspan1016" style="text-decoration:;">裸机（纯硬件）</tspan></tspan></text></g></g><g id="SvgjsG1017" transform="translate(125.57498931884766,188.07573834587544)"><path id="SvgjsPath1018" d="M0 0L210.68572453090127 0L210.68572453090127 40.97020626432419L0 40.97020626432419Z " stroke="rgba(50,50,50,1)" stroke-width="2" fill-opacity="1" fill="#c8e6c9"></path><g id="SvgjsG1019"><text id="SvgjsText1020" font-family="微软雅黑" text-anchor="middle" font-size="16px" width="191px" fill="#323232" font-weight="400" align="middle" lineHeight="125%" font-style="" opacity="1" y="6.485103132162095" transform="rotate(0)"><tspan id="SvgjsTspan1021" dy="20" x="105.5"><tspan id="SvgjsTspan1022" style="text-decoration:;">时钟管理</tspan></tspan></text></g></g><g id="SvgjsG1023" transform="translate(336.8321424211773,188.0608414780375)"><path id="SvgjsPath1024" d="M0 0L188.7142857142859 0L188.7142857142859 41.02979373567587L0 41.02979373567587Z " stroke="rgba(50,50,50,1)" stroke-width="2" fill-opacity="1" fill="#c8e6c9"></path><g id="SvgjsG1025"><text id="SvgjsText1026" font-family="微软雅黑" text-anchor="middle" font-size="16px" width="169px" fill="#323232" font-weight="400" align="middle" lineHeight="125%" font-style="" opacity="1" y="6.514896867837933" transform="rotate(0)"><tspan id="SvgjsTspan1027" dy="20" x="94.5"><tspan id="SvgjsTspan1028" style="text-decoration:;">中断管理</tspan></tspan></text></g></g><g id="SvgjsG1029" transform="translate(525.5464281354632,188.07573834587544)"><path id="SvgjsPath1030" d="M0 0L258.7848637043926 0L258.7848637043926 40.97020626432419L0 40.97020626432419Z " stroke="rgba(50,50,50,1)" stroke-width="2" fill-opacity="1" fill="#c8e6c9"></path><g id="SvgjsG1031"><text id="SvgjsText1032" font-family="微软雅黑" text-anchor="middle" font-size="16px" width="239px" fill="#323232" font-weight="400" align="middle" lineHeight="125%" font-style="" opacity="1" y="6.485103132162095" transform="rotate(0)"><tspan id="SvgjsTspan1033" dy="20" x="129.5"><tspan id="SvgjsTspan1034" style="text-decoration:;">原语（设备驱动、CPU 切换等）</tspan></tspan></text></g></g><g id="SvgjsG1035" transform="translate(125.28927503313349,147.04594461019963)"><path id="SvgjsPath1036" d="M0 0L658.7563025210083 0L658.7563025210083 40.714285714285666L0 40.714285714285666Z " stroke="rgba(50,50,50,1)" stroke-width="2" fill-opacity="1" fill="#ffb74d"></path><g id="SvgjsG1037"><text id="SvgjsText1038" font-family="微软雅黑" text-anchor="middle" font-size="16px" width="639px" fill="#323232" font-weight="400" align="middle" lineHeight="125%" font-style="" opacity="1" y="6.357142857142833" transform="rotate(0)"><tspan id="SvgjsTspan1039" dy="20" x="329.5"><tspan id="SvgjsTspan1040" style="text-decoration:;">进程管理、存储器管理、设备管理</tspan></tspan></text></g></g><g id="SvgjsG1041" transform="translate(125.57498931884766,107.04594461019894)"><path id="SvgjsPath1042" d="M0 0L658.7563025210083 0L658.7563025210083 40.714285714285666L0 40.714285714285666Z " stroke="rgba(50,50,50,1)" stroke-width="2" fill-opacity="1" fill="#00ffff"></path><g id="SvgjsG1043"><text id="SvgjsText1044" font-family="微软雅黑" text-anchor="middle" font-size="16px" width="639px" fill="#323232" font-weight="400" align="middle" lineHeight="125%" font-style="" opacity="1" y="6.357142857142833" transform="rotate(0)"><tspan id="SvgjsTspan1045" dy="20" x="329.5"><tspan id="SvgjsTspan1046" style="text-decoration:;">非内核功能</tspan></tspan></text></g></g><g id="SvgjsG1047" transform="translate(214.79852788588573,66.76985392850992)"><path id="SvgjsPath1048" d="M0 0L569.2470496682561 0L569.2470496682561 40.65424194219264L0 40.65424194219264Z " stroke="rgba(50,50,50,1)" stroke-width="2" fill-opacity="1" fill="#bbdefb"></path><g id="SvgjsG1049"><text id="SvgjsText1050" font-family="微软雅黑" text-anchor="middle" font-size="16px" width="550px" fill="#323232" font-weight="400" align="middle" lineHeight="125%" font-style="" opacity="1" y="6.3271209710963205" transform="rotate(0)"><tspan id="SvgjsTspan1051" dy="20" x="285"><tspan id="SvgjsTspan1052" style="text-decoration:;">应用程序（软件）</tspan></tspan></text></g></g><g id="SvgjsG1053" transform="translate(129.69263637767125,28.78925114246158)"><path id="SvgjsPath1054" d="M0 0L650.5210084033612 0L650.5210084033612 33.274729408865426L0 33.274729408865426Z " stroke="none" fill-opacity="1" fill="#bbdefb"></path><g id="SvgjsG1055"><text id="SvgjsText1056" font-family="微软雅黑" text-anchor="middle" font-size="16px" width="631px" fill="#323232" font-weight="400" align="middle" lineHeight="125%" font-style="" opacity="1" y="2.637364704432713" transform="rotate(0)"><tspan id="SvgjsTspan1057" dy="20" x="325.5"><tspan id="SvgjsTspan1058" style="text-decoration:;">用户</tspan></tspan></text></g></g><g id="SvgjsG1059" transform="translate(784.3312918398559,188.07573834587544)"><path id="SvgjsPath1060" d="M0 41Q9 41 9 36.9L9 24.6Q9 20.5 22 20.5Q9 20.5 9 16.4L9 4.1000000000000005Q9 0 0 0 " stroke="rgba(50,50,50,1)" stroke-width="2" fill="none"></path><path id="SvgjsPath1061" d="M0 0L105.73332977294922 0L105.73332977294922 41L0 41Z " stroke="none" fill="none"></path><g id="SvgjsG1062"><text id="SvgjsText1063" font-family="微软雅黑" text-anchor="start" font-size="16px" width="79px" fill="#323232" font-weight="400" align="middle" lineHeight="125%" font-style="" opacity="1" y="6.5" transform="rotate(0)"><tspan id="SvgjsTspan1064" dy="20" x="27"><tspan id="SvgjsTspan1065" style="text-decoration:;">微内核</tspan></tspan></text></g></g><g id="SvgjsG1066" transform="translate(25.003560747419243,147.04594461019963)"><path id="SvgjsPath1067" d="M100 0Q91 0 91 8.200000000000001L91 32.8Q91 41 78 41Q91 41 91 49.2L91 73.8Q91 82 100 82 " stroke="rgba(50,50,50,1)" stroke-width="2" fill="none"></path><path id="SvgjsPath1068" d="M0 0L100 0L100 82L0 82Z " stroke="none" fill="none"></path><g id="SvgjsG1069"><text id="SvgjsText1070" font-family="微软雅黑" text-anchor="end" font-size="16px" width="73px" fill="#323232" font-weight="400" align="middle" lineHeight="125%" font-style="" opacity="1" y="27" transform="rotate(0)"><tspan id="SvgjsTspan1071" dy="20" x="73"><tspan id="SvgjsTspan1072" style="text-decoration:;">宏内核</tspan></tspan></text></g></g></svg>