<?xml version="1.0" standalone="no"?><?xml-stylesheet type="text/css" href="https://www.processon.com/themes/default/mind/icons/icons.css" ?><!DOCTYPE svg PUBLIC "-//W3C//DTD SVG 1.1//EN" "http://www.w3.org/Graphics/SVG/1.1/DTD/svg11.dtd"><svg id="SvgjsSvg1000" xmlns="http://www.w3.org/2000/svg" version="1.1" xmlns:xlink="http://www.w3.org/1999/xlink" xmlns:svgjs="http://svgjs.com/svgjs" width="579" height="324.5"><rect fill="url(#pattern_mark)" transform="translate(-87.09999084472656,-145.0999984741211)" width="1261" height="1500" id="rect_mark" pointer-events="none"></rect><defs id="SvgjsDefs1001"><marker id="SvgjsMarker1027" markerWidth="14" markerHeight="10" refX="10" refY="5" viewBox="0 0 14 10" orient="auto" markerUnits="userSpaceOnUse" stroke-dasharray="0,0"><path id="SvgjsPath1028" d="M0 0L14 5L0 10L0 0 " fill="#323232" stroke="#323232" stroke-width="1"></path></marker><marker id="SvgjsMarker1031" markerWidth="14" markerHeight="10" refX="10" refY="5" viewBox="0 0 14 10" orient="auto" markerUnits="userSpaceOnUse" stroke-dasharray="0,0"><path id="SvgjsPath1032" d="M0 0L14 5L0 10L0 0 " fill="#323232" stroke="#323232" stroke-width="1"></path></marker><marker id="SvgjsMarker1041" markerWidth="14" markerHeight="10" refX="10" refY="5" viewBox="0 0 14 10" orient="auto" markerUnits="userSpaceOnUse" stroke-dasharray="0,0"><path id="SvgjsPath1042" d="M0 0L14 5L0 10L0 0 " fill="#323232" stroke="#323232" stroke-width="1"></path></marker><marker id="SvgjsMarker1051" markerWidth="14" markerHeight="10" refX="10" refY="5" viewBox="0 0 14 10" orient="auto" markerUnits="userSpaceOnUse" stroke-dasharray="0,0"><path id="SvgjsPath1052" d="M0 0L14 5L0 10L0 0 " fill="#323232" stroke="#323232" stroke-width="1"></path></marker><pattern patternUnits="userSpaceOnUse" id="pattern_mark" width="300" height="300"><text x="-50" y="150" fill="rgba(229,229,229,0.8)" font-size="18" transform="rotate(-45, 150, 150)"></text></pattern></defs><g id="SvgjsG1007" transform="translate(24.999984741210938,133.7499885559082)"><path id="SvgjsPath1008" d="M0 28.5C0 -9.5 151 -9.5 151 28.5C151 66.5 0 66.5 0 28.5Z " stroke="rgba(50,50,50,1)" stroke-width="2" fill-opacity="1" fill="#ffffff"></path><g id="SvgjsG1009"><text id="SvgjsText1010" font-family="微软雅黑" text-anchor="middle" font-size="16px" width="131px" fill="#323232" font-weight="400" align="middle" lineHeight="125%" font-style="" opacity="1" y="14.5" transform="rotate(0)"><tspan id="SvgjsTspan1011" dy="20" x="75.5"><tspan id="SvgjsTspan1012" style="text-decoration:;">供烟者</tspan></tspan></text></g></g><g id="SvgjsG1013" transform="translate(402.99998474121094,24.999977111816406)"><path id="SvgjsPath1014" d="M0 28.5C0 -9.5 151 -9.5 151 28.5C151 66.5 0 66.5 0 28.5Z " stroke="rgba(50,50,50,1)" stroke-width="2" fill-opacity="1" fill="#ffffff"></path><g id="SvgjsG1015"><text id="SvgjsText1016" font-family="微软雅黑" text-anchor="middle" font-size="16px" width="131px" fill="#323232" font-weight="400" align="middle" lineHeight="125%" font-style="" opacity="1" y="14.5" transform="rotate(0)"><tspan id="SvgjsTspan1017" dy="20" x="75.5"><tspan id="SvgjsTspan1018" style="text-decoration:;">吸烟者</tspan></tspan></text></g></g><g id="SvgjsG1019" transform="translate(239.49998474121094,141.4999771118164)"><path id="SvgjsPath1020" d="M0 0L105.00001525878906 0L105.00001525878906 41.500022888183594L0 41.500022888183594Z " stroke="rgba(50,50,50,1)" stroke-width="2" fill-opacity="1" fill="#ffffff"></path><g id="SvgjsG1021"><text id="SvgjsText1022" font-family="微软雅黑" text-anchor="middle" font-size="16px" width="86px" fill="#323232" font-weight="400" align="middle" lineHeight="125%" font-style="" opacity="1" y="6.750011444091797" transform="rotate(0)"><tspan id="SvgjsTspan1023" dy="20" x="53"><tspan id="SvgjsTspan1024" style="text-decoration:;">缓冲区</tspan></tspan></text></g></g><g id="SvgjsG1025"><path id="SvgjsPath1026" d="M176.99998474121094 162.2499885559082L235.89998474121091 162.2499885559082 " stroke="#323232" stroke-width="2" fill="none" marker-end="url(#SvgjsMarker1027)"></path></g><g id="SvgjsG1029"><path id="SvgjsPath1030" d="M344.97373746371574 161.36932243559232L401.29452987183436 56.67037514495351 " stroke="#323232" stroke-width="2" fill="none" marker-end="url(#SvgjsMarker1031)"></path></g><g id="SvgjsG1033" transform="translate(402.99998474121094,133.7499885559082)"><path id="SvgjsPath1034" d="M0 28.5C0 -9.5 151 -9.5 151 28.5C151 66.5 0 66.5 0 28.5Z " stroke="rgba(50,50,50,1)" stroke-width="2" fill-opacity="1" fill="#ffffff"></path><g id="SvgjsG1035"><text id="SvgjsText1036" font-family="微软雅黑" text-anchor="middle" font-size="16px" width="131px" fill="#323232" font-weight="400" align="middle" lineHeight="125%" font-style="" opacity="1" y="14.5" transform="rotate(0)"><tspan id="SvgjsTspan1037" dy="20" x="75.5"><tspan id="SvgjsTspan1038" style="text-decoration:;">吸烟者</tspan></tspan></text></g></g><g id="SvgjsG1039"><path id="SvgjsPath1040" d="M345.5 162.2499885559082L399.3999847412109 162.2499885559082 " stroke="#323232" stroke-width="2" fill="none" marker-end="url(#SvgjsMarker1041)"></path></g><g id="SvgjsG1043" transform="translate(402.99998474121094,242.5)"><path id="SvgjsPath1044" d="M0 28.5C0 -9.5 151 -9.5 151 28.5C151 66.5 0 66.5 0 28.5Z " stroke="rgba(50,50,50,1)" stroke-width="2" fill-opacity="1" fill="#ffffff"></path><g id="SvgjsG1045"><text id="SvgjsText1046" font-family="微软雅黑" text-anchor="middle" font-size="16px" width="131px" fill="#323232" font-weight="400" align="middle" lineHeight="125%" font-style="" opacity="1" y="14.5" transform="rotate(0)"><tspan id="SvgjsTspan1047" dy="20" x="75.5"><tspan id="SvgjsTspan1048" style="text-decoration:;">吸烟者</tspan></tspan></text></g></g><g id="SvgjsG1049"><path id="SvgjsPath1050" d="M344.97373746371574 163.13065467622408L401.29452987183436 267.82960196686287 " stroke="#323232" stroke-width="2" fill="none" marker-end="url(#SvgjsMarker1051)"></path></g></svg>