<?xml version="1.0" standalone="no"?><?xml-stylesheet type="text/css" href="https://www.processon.com/themes/default/mind/icons/icons.css" ?><!DOCTYPE svg PUBLIC "-//W3C//DTD SVG 1.1//EN" "http://www.w3.org/Graphics/SVG/1.1/DTD/svg11.dtd"><svg id="SvgjsSvg1033" xmlns="http://www.w3.org/2000/svg" version="1.1" xmlns:xlink="http://www.w3.org/1999/xlink" xmlns:svgjs="http://svgjs.com/svgjs" width="604" height="120"><rect fill="url(#pattern_mark)" transform="translate(-101.59999084472656,-101.0999984741211)" width="1050" height="1500" id="rect_mark" pointer-events="none"></rect><defs id="SvgjsDefs1034"><marker id="SvgjsMarker1055" markerWidth="14" markerHeight="10" refX="10" refY="5" viewBox="0 0 14 10" orient="auto" markerUnits="userSpaceOnUse" stroke-dasharray="0,0"><path id="SvgjsPath1056" d="M0 0L14 5L0 10L0 0 " fill="#323232" stroke="#323232" stroke-width="1"></path></marker><marker id="SvgjsMarker1059" markerWidth="14" markerHeight="10" refX="10" refY="5" viewBox="0 0 14 10" orient="auto" markerUnits="userSpaceOnUse" stroke-dasharray="0,0"><path id="SvgjsPath1060" d="M0 0L14 5L0 10L0 0 " fill="#323232" stroke="#323232" stroke-width="1"></path></marker><pattern patternUnits="userSpaceOnUse" id="pattern_mark" width="300" height="300"><text x="-50" y="150" fill="rgba(229,229,229,0.8)" font-size="18" transform="rotate(-45, 150, 150)"></text></pattern></defs><g id="SvgjsG1035" transform="translate(25,31.5)"><path id="SvgjsPath1036" d="M0 28.5C0 -9.5 151 -9.5 151 28.5C151 66.5 0 66.5 0 28.5Z " stroke="rgba(50,50,50,1)" stroke-width="2" fill-opacity="1" fill="#ffffff"></path><g id="SvgjsG1037"><text id="SvgjsText1038" font-family="微软雅黑" text-anchor="middle" font-size="16px" width="131px" fill="#323232" font-weight="400" align="middle" lineHeight="125%" font-style="" opacity="1" y="14.5" transform="rotate(0)"><tspan id="SvgjsTspan1039" dy="20" x="75.5"><tspan id="SvgjsTspan1040" style="text-decoration:;">生产者进程</tspan></tspan></text></g></g><g id="SvgjsG1041" transform="translate(429,31.5)"><path id="SvgjsPath1042" d="M0 28.5C0 -9.5 151 -9.5 151 28.5C151 66.5 0 66.5 0 28.5Z " stroke="rgba(50,50,50,1)" stroke-width="2" fill-opacity="1" fill="#ffffff"></path><g id="SvgjsG1043"><text id="SvgjsText1044" font-family="微软雅黑" text-anchor="middle" font-size="16px" width="131px" fill="#323232" font-weight="400" align="middle" lineHeight="125%" font-style="" opacity="1" y="14.5" transform="rotate(0)"><tspan id="SvgjsTspan1045" dy="20" x="75.5"><tspan id="SvgjsTspan1046" style="text-decoration:;">消费者进程</tspan></tspan></text></g></g><g id="SvgjsG1047" transform="translate(252.5,25)"><path id="SvgjsPath1048" d="M0 0L100 0L100 70L0 70Z " stroke="rgba(50,50,50,1)" stroke-width="2" fill-opacity="1" fill="#ffffff"></path><g id="SvgjsG1049"><text id="SvgjsText1050" font-family="微软雅黑" text-anchor="middle" font-size="16px" width="80px" fill="#323232" font-weight="400" align="middle" lineHeight="125%" font-style="" opacity="1" y="21" transform="rotate(0)"><tspan id="SvgjsTspan1051" dy="20" x="50"><tspan id="SvgjsTspan1052" style="text-decoration:;">缓冲区</tspan></tspan></text></g></g><g id="SvgjsG1053"><path id="SvgjsPath1054" d="M177 60L214.25 60L214.25 60L248.89999999999998 60 " stroke="#323232" stroke-width="2" fill="none" marker-end="url(#SvgjsMarker1055)"></path></g><g id="SvgjsG1057"><path id="SvgjsPath1058" d="M353.5 60L390.75 60L390.75 60L425.4 60 " stroke="#323232" stroke-width="2" fill="none" marker-end="url(#SvgjsMarker1059)"></path></g></svg>